<svg width="45" height="72" viewBox="0 0 45 72" fill="none" xmlns="http://www.w3.org/2000/svg">
<path d="M21.0145 1.86597C22.5789 0.993354 24.2624 0.634043 25.9799 0.360282C29.3978 -0.170129 32.7648 -0.221459 36.0807 0.942024C38.6824 1.84886 40.57 3.4572 41.6073 6.14347C42.5935 8.65865 43.0867 11.2252 43.3247 13.8772C43.3757 14.4418 43.1887 15.0749 42.9676 15.6053C42.7466 16.1528 42.6275 16.6833 42.8826 17.2308C43.4268 18.4456 43.9539 19.6775 44.6001 20.841C45.3653 22.1927 45.0422 23.1337 43.5458 23.493C42.8316 23.6641 42.6105 24.0577 42.9336 24.7079C43.2567 25.3409 43.1717 25.8885 42.7466 26.4531C42.6105 26.6242 42.5255 26.9322 42.5765 27.1375C42.7126 27.7534 42.5255 28.2325 42.0834 28.5747C41.4882 29.0196 41.3692 29.5329 41.4712 30.2515C41.8113 32.7325 40.2469 34.3579 37.4751 34.375C36.0127 34.375 34.5673 34.2382 33.1049 34.1184C32.4587 34.0671 32.1356 34.2895 31.8975 34.8883C30.9793 37.1982 30.9623 39.6107 31.1323 42.0403C31.2854 44.2646 31.9996 46.3007 33.1899 48.1657C34.6523 50.4585 36.1657 52.717 37.6281 54.9926C39.8388 58.466 40.8931 62.2302 40.4849 66.3708C40.3489 67.8252 40.2299 69.2966 40.0598 70.751C40.0088 71.1445 39.8218 71.5209 39.6517 72C39.3796 71.7776 39.1586 71.6236 38.9545 71.4525C35.5706 68.6122 32.0166 66.0115 28.0375 64.0438C25.7758 62.9317 23.3781 62.5039 20.8955 62.2815C17.7836 61.9906 14.6717 61.6313 11.5598 61.2378C10.7266 61.1351 9.92739 60.7758 9.14517 60.3994C10.3355 60.2112 11.5258 60.0743 12.7162 59.8348C15.5049 59.2359 18.3107 58.7055 21.0315 57.8671C23.0551 57.234 25.0786 56.4128 26.8301 55.1124C29.1938 53.3843 30.5202 51.0744 30.6222 48.0973C30.6732 46.8654 30.2991 45.719 29.7209 44.6411C28.5646 42.5536 26.9491 40.9453 24.9256 39.6963C23.0721 38.5499 21.2185 37.3522 19.4841 36.0176C18.7018 35.4359 18.0727 34.5632 17.5795 33.6906C16.5762 31.8941 16.8143 30.3884 18.1917 28.8827C19.4841 27.4626 20.8614 26.128 22.1028 24.6736C24.5685 21.782 25.9119 18.4285 25.8778 14.5958C25.8778 11.7898 24.8916 9.22328 23.6672 6.75944C22.834 5.09976 21.9157 3.49142 21.0145 1.84886V1.86597Z" fill="#141414"/>
<path d="M1.62906 31.8941C1.47602 31.6716 1.33998 31.4663 1.20395 31.2781C0.795831 30.7306 0.829841 30.2344 1.28897 29.704C2.25824 28.5747 2.25824 28.0272 1.32298 26.8808C1.01689 26.5044 0.710807 26.1622 0.404722 25.7858C-0.190445 25.0843 -0.139431 24.5881 0.625784 24.0748C1.27196 23.6299 1.95215 23.2022 2.61534 22.7573C3.77166 21.9703 4.68992 20.9608 5.45513 19.7973C5.6762 19.4551 5.71021 19.1642 5.37011 18.8391C5.16605 18.6509 5.06402 18.3429 4.82596 17.9323C5.21707 18.0349 5.45514 18.1034 5.82924 18.206C5.82924 17.3505 5.81224 16.5122 5.82924 15.6909C5.96528 12.0122 7.39368 8.98374 10.4885 6.91343C11.8659 5.98948 13.3964 5.25375 14.8588 4.44958C15.3179 4.19293 15.675 4.27848 16.0321 4.68912C17.5795 6.45145 19.0249 8.26512 19.6711 10.575C20.2323 12.594 20.0622 14.5958 19.382 16.5464C19.0079 17.6243 18.1917 18.36 17.3585 19.0958C16.4062 19.9171 15.4879 20.8068 14.6547 21.7478C14.2976 22.1585 14.1786 22.8086 13.9235 23.4246C14.1276 23.4075 14.1956 23.4246 14.1956 23.3904C14.6377 21.9703 15.607 20.995 16.8143 20.225C18.1407 19.3866 19.348 18.4627 20.2663 17.1452C21.1335 15.8962 21.5586 14.5445 21.5926 13.0217C21.6267 10.8316 21.3886 8.67576 20.8955 6.537C20.8444 6.28035 20.8274 6.00659 20.7594 5.56173C20.9465 5.76705 21.0145 5.81838 21.0485 5.88682C21.8817 7.3754 22.715 8.86397 23.5312 10.3525C24.9256 12.9362 24.7385 15.6224 24.1094 18.36C23.8033 19.6946 23.1911 20.8581 22.3749 21.936C21.6777 22.86 21.1165 23.9037 20.3683 24.7934C19.6881 25.6147 18.8719 26.3333 18.0557 27.0348C16.9504 27.9588 16.0661 29.0538 15.4709 30.3713C15.0628 31.261 14.9948 32.1678 15.3179 33.0747C15.862 34.5803 16.6273 35.932 17.9706 36.8902C18.6338 37.3693 19.263 37.8997 19.9432 38.3617C20.4363 38.7039 20.6574 39.0974 20.4533 39.6791C20.1983 40.3807 19.9942 41.1164 19.6881 41.8008C18.7529 43.9224 17.8346 46.0612 16.8143 48.1486C16.3892 49.0041 15.726 49.7227 15.1138 50.4756C15.4539 48.9699 15.692 47.4984 15.1478 45.9414C14.5187 46.4889 13.9405 47.0022 13.3453 47.4984C12.155 48.4908 10.8116 49.0383 9.23019 48.6961C8.1759 48.4737 7.35967 47.584 7.20662 46.5232C7.05358 45.5479 7.52972 44.8293 8.58401 44.4871C9.51927 44.162 10.5226 44.4528 10.8456 45.103C10.3525 45.103 9.80835 45.0346 9.29821 45.103C8.48198 45.2399 8.03986 45.7019 8.09087 46.2152C8.15889 46.8654 8.92411 47.5669 9.6213 47.5326C10.0124 47.5326 10.4375 47.4471 10.7946 47.2931C12.4951 46.5403 13.4134 45.2057 13.6514 43.3749C13.7365 42.6563 13.4304 42.1259 12.8692 41.7152C11.7979 40.894 10.5396 40.6031 9.2472 40.5689C7.8358 40.5175 6.42441 40.5689 5.01301 40.6715C3.24452 40.8084 1.7651 39.8502 1.47602 38.1221C1.391 37.6088 1.47602 36.9929 1.69708 36.5138C2.1222 35.5898 2.1052 34.8028 1.49303 33.9815C0.778827 33.0233 0.812836 32.7325 1.69708 31.9454L1.62906 31.8941ZM20.8614 21.3885C19.8412 22.8258 18.4128 23.801 17.0184 24.8105C15.4029 25.9911 14.1786 27.4968 13.3623 29.3276C12.002 32.3903 12.4781 35.3332 14.6207 37.3864C14.7057 37.4719 14.8248 37.5233 14.9268 37.5917C12.5631 34.6659 12.5291 31.107 15.0288 27.9245C16.0321 26.6413 17.2734 25.5634 18.4298 24.417C19.365 23.4931 20.2663 22.5691 20.8614 21.3714V21.3885Z" fill="#141414"/>
<path d="M5.38712 53.4527C5.38712 53.4527 5.28509 53.5725 5.21707 53.6409C3.97572 54.8386 4.17978 56.3956 5.71021 57.1827C7.68276 58.2093 9.50227 57.696 11.2027 56.5154C14.3996 54.2911 16.9674 51.4851 18.8209 48.046C20.1132 45.6505 21.3206 43.1867 22.5619 40.7571C22.715 40.4491 22.834 40.1924 23.2251 40.432C24.8065 41.4415 26.354 42.4852 27.4253 44.0935C29.3638 47.0365 28.5476 51.3311 25.7248 53.7094C23.4972 55.5744 20.9295 56.6181 18.1917 57.4907C15.0798 58.466 11.9339 58.8937 8.68604 58.8082C7.44469 58.7739 6.27136 58.4831 5.21707 57.7987C3.85669 56.9261 3.41456 55.4375 4.17978 54.2398C4.43485 53.8463 4.87697 53.5725 5.23407 53.2474C5.28509 53.3158 5.3361 53.3843 5.40412 53.4527H5.38712Z" fill="#141414"/>
</svg>
