<svg width="177" height="53" viewBox="0 0 177 53" fill="none" xmlns="http://www.w3.org/2000/svg">
<path d="M14.5826 1.29722C15.6683 0.69058 16.8365 0.440787 18.0283 0.250469C20.4001 -0.118273 22.7365 -0.153958 25.0376 0.654895C26.843 1.28533 28.1528 2.40345 28.8726 4.27095C29.557 6.0195 29.8992 7.80373 30.0644 9.64744C30.0998 10.04 29.97 10.4801 29.8166 10.8488C29.6632 11.2295 29.5806 11.5982 29.7576 11.9788C30.1352 12.8234 30.5011 13.6798 30.9495 14.4887C31.4805 15.4284 31.2563 16.0826 30.2178 16.3324C29.7222 16.4513 29.5688 16.7249 29.793 17.1769C30.0172 17.617 29.9582 17.9977 29.6632 18.3902C29.5688 18.5091 29.5098 18.7233 29.5452 18.866C29.6396 19.2942 29.5098 19.6273 29.203 19.8652C28.79 20.1744 28.7074 20.5313 28.7782 21.0309C29.0142 22.7556 27.9286 23.8856 26.0052 23.8975C24.9904 23.8975 23.9874 23.8024 22.9725 23.7191C22.5241 23.6834 22.2999 23.8381 22.1347 24.2544C21.4975 25.8602 21.4857 27.5374 21.6037 29.2264C21.7099 30.7728 22.2055 32.1883 23.0316 33.4848C24.0464 35.0787 25.0966 36.6489 26.1114 38.2309C27.6454 40.6456 28.377 43.2624 28.0938 46.141C27.9994 47.1521 27.9168 48.175 27.7988 49.1861C27.7634 49.4597 27.6336 49.7214 27.5156 50.0544C27.3268 49.8998 27.1734 49.7927 27.0318 49.6738C24.6836 47.6992 22.2173 45.8912 19.4561 44.5233C17.8867 43.7501 16.2229 43.4528 14.5 43.2981C12.3406 43.0959 10.1812 42.8461 8.02175 42.5725C7.44354 42.5012 6.88894 42.2514 6.34613 41.9897C7.17214 41.8588 7.99815 41.7637 8.82416 41.5971C10.7594 41.1808 12.7064 40.8121 14.5944 40.2292C15.9987 39.7891 17.4029 39.2182 18.6183 38.3142C20.2585 37.1128 21.1789 35.507 21.2497 33.4372C21.2851 32.5808 21.0255 31.7839 20.6243 31.0345C19.8219 29.5833 18.7009 28.4652 17.2967 27.5968C16.0105 26.7999 14.7242 25.9672 13.5206 25.0394C12.9778 24.635 12.5412 24.0284 12.199 23.4217C11.5028 22.1728 11.668 21.126 12.6238 20.0793C13.5206 19.092 14.4764 18.1642 15.3378 17.1531C17.0489 15.1429 17.9811 12.8115 17.9575 10.147C17.9575 8.19626 17.2731 6.41203 16.4235 4.69916C15.8453 3.54536 15.208 2.42724 14.5826 1.28533V1.29722Z" fill="#FCEFE0"/>
<path d="M1.13046 22.1728C1.02426 22.0181 0.929858 21.8754 0.835457 21.7446C0.552253 21.3639 0.575854 21.019 0.894458 20.6502C1.56707 19.8652 1.56707 19.4845 0.918058 18.6876C0.705655 18.4259 0.493252 18.188 0.28085 17.9263C-0.132156 17.4386 -0.0967554 17.0937 0.434252 16.7368C0.882658 16.4275 1.35466 16.1302 1.81487 15.8209C2.61728 15.2737 3.25449 14.5719 3.7855 13.7631C3.9389 13.5252 3.9625 13.323 3.7265 13.097C3.58489 12.9661 3.51409 12.752 3.34889 12.4665C3.62029 12.5379 3.7855 12.5855 4.0451 12.6569C4.0451 12.0621 4.0333 11.4793 4.0451 10.9083C4.1395 8.3509 5.13071 6.2455 7.27834 4.80622C8.23416 4.16389 9.29617 3.65241 10.311 3.09335C10.6296 2.91493 10.8774 2.9744 11.1252 3.25988C12.199 4.48505 13.202 5.74591 13.6504 7.35172C14.0398 8.75532 13.9218 10.147 13.4498 11.503C13.1902 12.2524 12.6238 12.7639 12.0456 13.2754C11.3848 13.8463 10.7476 14.4649 10.1694 15.1191C9.92158 15.4046 9.83898 15.8566 9.66197 16.2848C9.80358 16.2729 9.85078 16.2848 9.85078 16.261C10.1576 15.2737 10.8302 14.5957 11.668 14.0604C12.5884 13.4776 13.4262 12.8353 14.0634 11.9194C14.6652 11.051 14.9602 10.1113 14.9838 9.0527C15.0074 7.53015 14.8422 6.03139 14.5 4.54453C14.4646 4.3661 14.4528 4.17579 14.4056 3.86652C14.5354 4.00926 14.5826 4.04494 14.6062 4.09252C15.1844 5.12738 15.7627 6.16223 16.3291 7.19709C17.2967 8.99322 17.1669 10.8607 16.7303 12.7639C16.5179 13.6917 16.0931 14.5006 15.5267 15.2499C15.0428 15.8923 14.6534 16.6179 14.1342 17.2364C13.6622 17.8073 13.0958 18.3069 12.5294 18.7946C11.7624 19.4369 11.1488 20.1982 10.7358 21.1141C10.4526 21.7327 10.4054 22.3631 10.6296 22.9935C11.0072 24.0403 11.5382 24.98 12.4704 25.6461C12.9306 25.9791 13.3672 26.3479 13.8392 26.669C14.1814 26.9069 14.3348 27.1805 14.1932 27.585C14.0162 28.0726 13.8746 28.5841 13.6622 29.0599C13.0132 30.5349 12.376 32.0217 11.668 33.4729C11.373 34.0677 10.9128 34.5673 10.488 35.0906C10.724 34.0439 10.8892 33.0209 10.5116 31.9385C10.075 32.3191 9.67377 32.676 9.26077 33.0209C8.43476 33.7108 7.50255 34.0915 6.40513 33.8536C5.67352 33.6989 5.10711 33.0804 5.00091 32.3429C4.89471 31.6649 5.22512 31.1653 5.95673 30.9274C6.60573 30.7014 7.30194 30.9036 7.52615 31.3556C7.18394 31.3556 6.80634 31.3081 6.45233 31.3556C5.88592 31.4508 5.57912 31.772 5.61452 32.1288C5.66172 32.5808 6.19273 33.0685 6.67653 33.0447C6.94794 33.0447 7.24294 32.9852 7.49075 32.8782C8.67076 32.3548 9.30797 31.427 9.47317 30.1543C9.53217 29.6547 9.31977 29.2859 8.93036 29.0004C8.18695 28.4295 7.31374 28.2273 6.41693 28.2035C5.43752 28.1678 4.45811 28.2035 3.47869 28.2749C2.25148 28.37 1.22486 27.7039 1.02426 26.5025C0.965259 26.1457 1.02426 25.7175 1.17766 25.3844C1.47267 24.7421 1.46087 24.1949 1.03606 23.6239C0.540453 22.9578 0.564053 22.7556 1.17766 22.2085L1.13046 22.1728ZM14.4764 14.8693C13.7684 15.8685 12.7772 16.5465 11.8096 17.2483C10.6886 18.069 9.83898 19.1158 9.27257 20.3885C8.32856 22.5177 8.65896 24.5636 10.1458 25.991C10.2048 26.0505 10.2874 26.0862 10.3582 26.1338C8.71796 24.0997 8.69436 21.6256 10.429 19.4132C11.1252 18.521 11.9866 17.7717 12.789 16.9747C13.438 16.3324 14.0634 15.6901 14.4764 14.8574V14.8693Z" fill="#FCEFE0"/>
<path d="M41.0622 28.0726C40.1064 28.0726 39.1506 28.0845 38.2066 28.0608C38.0178 28.0608 37.7345 27.9299 37.6873 27.7872C37.6165 27.585 37.6283 27.2281 37.7581 27.0973C38.7376 26.11 39.009 24.8848 39.0326 23.5526C39.0798 21.0903 39.127 18.6281 39.1978 16.1658C39.2214 15.5116 39.068 14.9526 38.6196 14.4887C38.478 14.334 38.3482 14.1675 38.242 13.9891C37.9115 13.4419 38.1712 12.9423 38.7966 12.9304C40.0002 12.9066 41.2038 12.8947 42.4074 12.9066C44.1774 12.9304 45.9475 12.9661 47.7175 13.0256C49.2633 13.0851 50.5731 13.6798 51.5761 14.8931C52.1425 15.583 52.2605 16.3918 51.9537 17.2245C51.6115 18.1523 51.0687 18.9493 50.2191 19.5083C49.8887 19.7224 49.8769 19.9484 50.2191 20.1506C50.5731 20.3766 50.9389 20.567 51.3047 20.7692C53.8536 22.1847 53.5586 24.9443 51.8357 26.5263C50.7383 27.5374 49.4167 27.9418 47.9417 27.9299C46.7971 27.9299 45.6525 28.0013 44.5078 28.0132C43.3632 28.0251 42.2186 28.0132 41.074 28.0132C41.074 28.037 41.074 28.0489 41.074 28.0726H41.0622ZM41.605 23.1838C41.605 23.1838 41.5814 23.1838 41.5696 23.1838C41.605 23.9451 41.6522 24.7064 41.6876 25.4796C41.723 26.1814 42.2068 26.7285 42.8912 26.7285C44.4252 26.7285 45.9475 26.6928 47.4815 26.6453C49.4167 26.5858 50.5495 24.076 50.1247 22.8984C49.7707 21.9349 49.0273 21.4591 48.1541 21.1498C46.2779 20.4599 44.319 20.5194 42.372 20.6502C41.8528 20.6859 41.605 21.0309 41.605 21.578C41.605 22.1133 41.605 22.6605 41.605 23.1957V23.1838ZM41.5932 16.9152C41.5932 17.4624 41.5932 17.9263 41.5932 18.4021C41.605 19.0087 41.8764 19.3537 42.4664 19.3894C44.083 19.4845 45.6879 19.4488 47.2101 18.8541C47.6703 18.6757 48.1305 18.3902 48.4609 18.0215C49.4875 16.9033 48.9683 15.2143 47.4579 14.6671C45.8413 14.0842 44.1538 14.1556 42.4664 14.2032C41.9826 14.2151 41.6994 14.5719 41.6758 15.0715C41.6404 15.7138 41.6168 16.3562 41.5814 16.9152H41.5932Z" fill="#FCEFE0"/>
<path d="M120.985 17.5219C122.141 16.2015 123.545 15.7019 125.209 15.7733C126.873 15.8447 128.147 16.6179 129.091 17.7955C129.965 17.2364 130.743 16.6416 131.605 16.2253C134 15.0596 136.431 16.1896 137.528 17.617C138.083 18.3426 138.225 19.1634 138.225 20.0317C138.225 21.5067 138.201 22.9697 138.166 24.4447C138.142 25.3487 138.307 26.1695 138.968 26.8475C139.039 26.9188 139.098 27.014 139.145 27.1092C139.511 27.8466 139.381 28.0726 138.555 28.0726C137.517 28.0726 136.466 28.0726 135.428 28.0845C135.098 28.0845 134.885 27.9656 134.779 27.6563C134.673 27.3471 134.685 27.0973 134.98 26.8594C135.593 26.3598 135.924 25.6937 135.924 24.8967C135.924 23.1601 135.947 21.4115 135.865 19.6867C135.794 18.3069 134.803 17.5932 133.646 17.1412C132.549 16.7249 131.723 17.2959 130.979 18.0333C130.071 18.9255 129.811 20.0674 129.788 21.2807C129.764 22.5534 129.764 23.8262 129.788 25.0989C129.788 25.7293 130 26.3003 130.413 26.788C130.555 26.9545 130.637 27.2162 130.673 27.4422C130.732 27.9537 130.625 28.0489 130.118 28.0489C129.115 28.0489 128.124 28.0608 127.121 28.0608C126.873 28.0608 126.602 28.1202 126.472 27.7991C126.354 27.4779 126.283 27.1686 126.531 26.8713C126.944 26.3479 127.357 25.8245 127.357 25.1227C127.357 23.6002 127.345 22.0895 127.333 20.567C127.333 20.4004 127.31 20.2339 127.31 20.0674C127.31 18.7114 126.543 17.6527 125.233 17.2007C124.135 16.8201 122.967 17.2483 122.141 18.3426C121.586 19.0801 121.268 19.9246 121.221 20.8405C121.15 22.3512 121.114 23.8618 121.103 25.3725C121.103 25.9554 121.315 26.4906 121.693 26.9426C121.787 27.0497 121.858 27.1924 121.917 27.3352C122.07 27.7277 121.94 28.0251 121.516 28.037C120.43 28.0726 119.344 28.0726 118.259 28.037C117.881 28.037 117.633 27.3827 117.893 27.0735C118.625 26.217 118.766 25.1822 118.778 24.1235C118.802 22.4701 118.778 20.8168 118.79 19.1634C118.79 18.6519 118.542 18.2831 118.188 17.962C117.586 17.4148 117.633 16.9866 118.389 16.7249C118.861 16.5584 119.356 16.4394 119.852 16.3562C120.454 16.261 120.772 16.5108 120.902 17.1055C120.926 17.2245 120.973 17.3553 121.02 17.5338L120.985 17.5219Z" fill="#FCEFE0"/>
<path d="M3.7383 37.1604C3.7383 37.1604 3.66749 37.2436 3.62029 37.2912C2.75888 38.1238 2.90048 39.2063 3.9625 39.7534C5.33132 40.4671 6.59393 40.1103 7.77395 39.2895C9.99238 37.7432 11.7742 35.7924 13.0604 33.4016C13.9572 31.7363 14.795 30.0234 15.6565 28.3343C15.7627 28.1202 15.8453 27.9418 16.1167 28.1083C17.2141 28.8101 18.2879 29.5357 19.0313 30.6538C20.3765 32.6998 19.8101 35.6854 17.8513 37.3388C16.3055 38.6353 14.5236 39.3609 12.6238 39.9675C10.4644 40.6456 8.28136 40.9429 6.02753 40.8835C5.16611 40.8597 4.3519 40.6574 3.62029 40.1817C2.67628 39.575 2.36948 38.5402 2.90048 37.7075C3.07749 37.4339 3.38429 37.2436 3.63209 37.0176C3.66749 37.0652 3.7029 37.1128 3.7501 37.1604H3.7383Z" fill="#FCEFE0"/>
<path d="M145.588 15.9874C149.317 15.9874 152.066 18.0928 152.692 20.9714C153.105 22.8508 152.526 24.5161 151.37 25.9672C148.278 29.8569 142.461 28.5128 140.443 25.1465C139.18 23.053 139.523 20.1744 141.293 18.2237C142.626 16.7487 144.302 16.0112 145.6 15.9874H145.588ZM142.355 22.8389C142.355 23.3979 142.567 24.3376 143.016 25.206C144.066 27.2876 146.921 27.8229 148.514 26.2646C150.627 24.1949 150.65 20.1863 148.562 18.1047C147.016 16.5584 144.786 16.7011 143.476 18.4616C142.603 19.6392 142.284 20.9833 142.367 22.8508L142.355 22.8389Z" fill="#FCEFE0"/>
<path d="M61.3585 20.9357C60.2611 20.9357 59.1518 20.9357 58.0544 20.9357C57.4408 20.9357 57.252 21.126 57.2756 21.7565C57.2992 22.3393 57.3228 22.934 57.429 23.505C57.8066 25.3963 59.081 26.5144 61.0045 26.6334C63.4943 26.7999 65.1817 25.539 66.3617 23.4455C66.5033 23.1957 66.6331 22.9222 66.9517 23.053C67.2703 23.1838 67.3175 23.5288 67.1995 23.7905C66.9399 24.3614 66.6803 24.9443 66.3145 25.432C63.7775 28.715 58.7624 28.9767 56.0602 25.9791C54.9392 24.7421 54.6678 23.2314 54.7622 21.6256C54.9982 17.8549 58.2078 15.2499 61.9367 15.7852C63.5769 16.0231 65.0755 16.5703 66.1493 17.8906C66.5741 18.4021 66.8455 19.0682 67.0697 19.7105C67.2939 20.3291 66.9871 20.7573 66.3499 20.793C64.6861 20.8881 63.0223 20.9357 61.3585 20.9952C61.3585 20.9833 61.3585 20.9595 61.3585 20.9476V20.9357ZM60.4263 19.8057C60.4263 19.8057 60.4263 19.7938 60.4263 19.7819C61.5119 19.7819 62.5975 19.7819 63.6831 19.7819C64.3085 19.7819 64.4501 19.5321 64.2141 18.9374C63.8483 18.0096 63.2229 17.3434 62.2553 17.0461C60.8275 16.606 59.5412 16.939 58.4438 17.9025C58.1016 18.1999 57.8892 18.7114 57.7358 19.1634C57.5942 19.5678 57.8066 19.7938 58.2432 19.8057C58.9748 19.8176 59.6946 19.8057 60.4263 19.8057Z" fill="#FCEFE0"/>
<path d="M91.8973 28.1678C90.6228 27.9418 89.136 27.692 87.6492 27.4065C87.3424 27.3471 87.0474 27.1448 86.776 26.9664C86.658 26.8832 86.5518 26.669 86.5518 26.5263C86.5754 25.8364 86.7406 25.1941 87.2008 24.6469C87.4958 24.302 87.8026 24.302 88.0268 24.6826C89.0888 26.4906 90.7763 26.9069 92.6643 26.7523C93.2661 26.7047 93.8797 26.4787 94.4461 26.2527C94.7175 26.1457 94.9653 25.8959 95.1423 25.6461C95.7205 24.8372 95.5081 24.0403 94.6231 23.6002C93.8443 23.2195 93.0183 23.1125 92.1569 23.0768C91.4371 23.0411 90.6936 22.9935 89.9974 22.8151C87.2716 22.1014 86.5046 19.1872 88.4752 17.1293C89.4192 16.154 90.6229 15.809 91.9091 15.7376C93.4785 15.6544 94.9653 16.1183 96.4521 16.5465C96.8179 16.6535 97.0303 16.939 96.9595 17.3434C96.8769 17.7836 96.7943 18.2356 96.6291 18.64C96.5347 18.866 96.2633 19.1753 96.0981 19.1634C95.8267 19.1277 95.4963 18.9136 95.3547 18.6876C94.6113 17.4624 92.7705 16.6654 91.4253 17.0818C90.7291 17.2959 90.1745 17.7003 89.903 18.4259C89.5844 19.3061 89.9384 20.1982 90.8353 20.4361C91.6731 20.6621 92.5581 20.7692 93.4195 20.8524C94.5051 20.9714 95.5081 21.3282 96.4639 21.804C97.4905 22.3155 97.9389 24.0879 97.3843 25.2773C96.7117 26.7523 95.4609 27.4898 93.9859 27.8704C93.3841 28.0251 92.7587 28.0489 91.8855 28.1559L91.8973 28.1678Z" fill="#FCEFE0"/>
<path d="M104.618 28.2035C103.131 27.9418 101.632 27.692 100.146 27.3946C99.8388 27.3352 99.5438 27.1329 99.2842 26.9545C99.1662 26.8713 99.0718 26.6572 99.0718 26.5025C99.06 25.8007 99.2724 25.1703 99.709 24.6231C99.9804 24.2901 100.299 24.2782 100.511 24.635C101.526 26.3955 103.166 26.8475 105.007 26.7523C105.668 26.7166 106.341 26.4668 106.966 26.2289C107.249 26.1219 107.497 25.8364 107.674 25.5747C108.217 24.7421 108.004 24.0046 107.119 23.5764C106.376 23.2076 105.562 23.1244 104.736 23.053C103.851 22.9935 102.942 22.9103 102.104 22.6605C100.653 22.2204 99.8624 21.1498 99.8978 19.7819C99.945 18.2593 100.618 17.0699 101.975 16.3443C103.45 15.5711 105.007 15.5711 106.588 15.9042C107.332 16.0588 108.063 16.261 108.795 16.4632C109.385 16.6297 109.527 16.8558 109.444 17.4505C109.385 17.843 109.302 18.2475 109.137 18.6162C109.043 18.8303 108.771 19.1396 108.594 19.1277C108.347 19.1158 107.969 18.9017 107.886 18.6757C107.686 18.0928 107.178 17.8906 106.754 17.5932C105.892 17.0104 104.972 16.7011 103.922 17.0342C103.225 17.2602 102.671 17.6646 102.399 18.3783C102.069 19.2466 102.435 20.1506 103.332 20.3885C104.193 20.6145 105.078 20.7216 105.963 20.8168C107.049 20.9357 108.04 21.3282 109.007 21.7921C109.279 21.923 109.538 22.2085 109.68 22.482C110.459 23.9451 110.223 25.4558 108.854 26.6453C107.745 27.6087 106.411 28.0489 104.63 28.0489C104.63 28.0964 104.618 28.1321 104.606 28.1797L104.618 28.2035Z" fill="#FCEFE0"/>
<path d="M77.7607 18.3783C77.8551 21.0071 77.9495 23.2195 78.0321 25.4439C78.0557 25.991 78.2563 26.4311 78.7047 26.7404C79.0823 27.0021 79.0941 27.3708 78.9997 27.7396C78.9053 28.1083 78.5631 28.0489 78.2917 28.0489C77.1943 28.0607 76.0851 28.0489 74.9876 28.0489C74.4802 28.0489 74.2914 27.7515 74.5038 27.2757C74.5746 27.1092 74.7162 26.9426 74.8578 26.8237C75.3298 26.4311 75.495 25.9316 75.5304 25.3249C75.731 21.6851 75.6957 18.0333 75.4596 14.3935C75.4361 14.0486 75.1882 13.7155 75.023 13.3943C74.9286 13.2159 74.7516 13.0732 74.669 12.8829C74.433 12.3238 74.551 12.0859 75.1292 11.9551C75.6367 11.8361 76.1441 11.7053 76.6515 11.6458C77.3241 11.5625 77.7725 11.9907 77.7725 12.6687C77.7725 14.7147 77.7725 16.7487 77.7725 18.3783H77.7607Z" fill="#FCEFE0"/>
<path d="M72.0612 18.1642C72.1438 20.4361 72.2264 22.8389 72.2972 25.2417C72.3208 25.8959 72.5332 26.4074 73.0524 26.8475C73.2412 27.014 73.2884 27.4303 73.2766 27.7277C73.2766 28.0964 72.9108 28.0726 72.6512 28.0726C71.5184 28.0845 70.3856 28.0845 69.2528 28.0726C68.7454 28.0726 68.5566 27.7634 68.7808 27.2995C68.8516 27.1448 68.9696 26.9902 69.0994 26.8832C69.6304 26.4549 69.772 25.884 69.8074 25.2179C69.9844 22.0062 69.949 18.7946 69.8074 15.5949C69.7956 15.2856 69.7838 14.9645 69.772 14.6552C69.7484 14.1794 69.5832 13.7631 69.2646 13.3943C69.1112 13.2159 68.9814 13.0137 68.9106 12.7877C68.7454 12.3 68.8398 12.1454 69.3354 12.0145C69.7838 11.8956 70.2322 11.7647 70.6806 11.7053C71.6246 11.5625 72.0612 11.9313 72.073 12.8947C72.073 14.6195 72.073 16.3443 72.073 18.1999L72.0612 18.1642Z" fill="#FCEFE0"/>
<path d="M115.769 21.8992C115.769 23.1006 115.781 24.302 115.769 25.5033C115.769 25.9791 115.887 26.3479 116.265 26.6334C116.442 26.7761 116.63 26.9188 116.737 27.1092C116.831 27.2876 116.902 27.5612 116.831 27.7277C116.76 27.8942 116.501 28.0489 116.312 28.0608C115.167 28.0845 114.023 28.0845 112.866 28.0608C112.666 28.0608 112.382 27.8942 112.312 27.7277C112.241 27.5493 112.288 27.1686 112.43 27.0854C113.433 26.4311 113.35 25.3844 113.385 24.4209C113.444 22.4226 113.492 20.4242 113.433 18.4378C113.421 17.962 113.008 17.4743 112.701 17.058C112.312 16.5346 112.335 16.2848 112.949 16.0945C113.574 15.8923 114.2 15.7138 114.837 15.5711C115.439 15.4403 115.722 15.6663 115.722 16.2848C115.722 18.1642 115.722 20.0317 115.722 21.9111C115.745 21.9111 115.769 21.9111 115.793 21.9111L115.769 21.8992Z" fill="#FCEFE0"/>
<path d="M84.298 21.0071C84.298 22.4345 84.3098 23.8618 84.298 25.2892C84.298 25.884 84.4396 26.3717 84.9352 26.7404C85.242 26.9664 85.596 27.24 85.419 27.7039C85.242 28.1559 84.829 28.0726 84.4514 28.0726C83.5074 28.0726 82.5751 28.0964 81.6311 28.0608C81.3715 28.0608 80.9939 27.9418 80.8759 27.7396C80.6635 27.4184 80.8877 27.0854 81.1827 26.8475C81.6311 26.5025 81.8435 26.0743 81.8553 25.5033C81.8907 23.0887 81.9733 20.674 81.9497 18.2475C81.9497 17.843 81.5367 17.4029 81.2417 17.0342C80.8287 16.5108 80.8641 16.261 81.4895 16.0588C82.0677 15.8685 82.6578 15.7138 83.2478 15.5592C83.9676 15.3808 84.2626 15.5949 84.2744 16.3443C84.298 17.8906 84.2744 19.4369 84.2744 20.9833C84.2744 20.9833 84.2862 20.9833 84.298 20.9833V21.0071Z" fill="#FCEFE0"/>
<path d="M135.924 39.5869H134.614V32.9496C135.015 32.9496 135.416 32.9258 135.806 32.9614C135.935 32.9733 136.065 33.1637 136.148 33.3064C136.714 34.3888 137.281 35.4832 137.871 36.637C137.965 36.4823 138.036 36.3872 138.095 36.2801C138.626 35.2691 139.157 34.2699 139.664 33.2588C139.782 33.0328 139.912 32.9258 140.172 32.9377C140.49 32.9614 140.821 32.9377 141.175 32.9377V39.5631H139.889V35.5426C139.889 35.5426 139.818 35.5308 139.782 35.5189C139.346 36.3634 138.897 37.196 138.484 38.0525C138.331 38.3617 138.142 38.5521 137.8 38.4569C137.646 38.4093 137.446 38.3023 137.375 38.1714C136.903 37.3031 136.455 36.4229 135.924 35.5545V39.5869Z" fill="#FCEFE0"/>
<path d="M128.077 36.1255C128.501 36.5061 128.903 36.863 129.363 37.2674C129.457 36.8749 129.552 36.4585 129.658 35.9946H130.625C130.649 36.6489 130.507 37.2674 130.224 37.8503C130.106 38.0882 130.106 38.2428 130.307 38.4331C130.673 38.7781 131.003 39.1706 131.369 39.5393C130.555 39.7891 129.799 39.6345 129.327 39.1587C128.808 39.3371 128.324 39.575 127.817 39.6702C126.377 39.9438 125.115 38.9446 125.233 37.6005C125.268 37.196 125.528 36.8035 125.74 36.4348C125.858 36.2207 126.071 36.0541 126.248 35.8519C125.481 34.6862 125.457 33.8536 126.212 33.2707C126.991 32.676 128.336 32.783 128.914 33.4848C129.504 34.1985 129.28 34.9836 128.1 36.1255H128.077ZM128.537 38.3023C128.041 37.7789 127.557 37.2674 127.085 36.7678C126.425 37.2198 126.248 37.7313 126.566 38.2071C126.92 38.7543 127.805 38.8137 128.537 38.3023ZM127.298 35.2334C127.475 35.1025 127.616 34.9955 127.758 34.8765C128.029 34.6386 128.136 34.365 127.9 34.0558C127.711 33.7941 127.262 33.7703 127.015 33.9844C126.731 34.2342 126.72 34.5197 126.944 34.8171C127.038 34.9479 127.156 35.0668 127.298 35.2215V35.2334Z" fill="#FCEFE0"/>
<path d="M148.396 39.5155V32.902C149.529 32.9614 150.65 32.9139 151.748 33.0923C152.998 33.2945 153.895 34.4007 153.99 35.6854C154.025 36.2325 154.025 36.8035 153.895 37.3388C153.612 38.5283 152.821 39.3252 151.63 39.4918C150.579 39.6345 149.506 39.5155 148.396 39.5155ZM149.718 38.4331C150.733 38.4569 151.771 38.6115 152.373 37.5648C152.88 36.6846 152.88 35.7449 152.314 34.8884C151.677 33.9249 150.674 34.1272 149.718 34.1272V38.4331Z" fill="#FCEFE0"/>
<path d="M93.9505 39.5869H92.6879V32.9733C93.7617 32.9733 94.8119 32.9139 95.8621 32.9971C96.7353 33.0685 97.4315 33.8179 97.6204 34.6862C97.821 35.614 97.4905 36.4585 96.7117 36.9938C96.6527 37.0295 96.5937 37.089 96.5347 37.1366C97.0303 37.9335 97.5141 38.7186 98.057 39.5988C97.5377 39.5988 97.1011 39.6107 96.6763 39.5869C96.5819 39.5869 96.4757 39.4323 96.4049 39.3252C96.0863 38.8375 95.7559 38.3498 95.4845 37.8384C95.2839 37.4696 95.0243 37.3269 94.6349 37.3745C94.4343 37.3982 94.2219 37.3745 93.9505 37.3745V39.5869ZM93.9859 36.2206C94.4933 36.2206 94.9535 36.2206 95.4137 36.2206C95.9801 36.2206 96.3223 35.8638 96.3577 35.2572C96.3931 34.6862 96.0273 34.1628 95.5081 34.1271C95.0125 34.0915 94.5051 34.1271 93.9859 34.1271V36.2206Z" fill="#FCEFE0"/>
<path d="M112.689 37.3864V39.575H111.45V32.9496C111.875 32.9496 112.312 32.9496 112.76 32.9496C113.232 32.9496 113.716 32.9496 114.188 32.9496C115.214 32.9496 116.029 33.5681 116.324 34.5435C116.607 35.4951 116.265 36.4348 115.415 37.0176C115.368 37.0533 115.321 37.089 115.262 37.1366C115.757 37.9335 116.241 38.7186 116.784 39.5988C116.276 39.5988 115.84 39.6107 115.403 39.5869C115.309 39.5869 115.203 39.4323 115.132 39.3252C114.813 38.8256 114.471 38.326 114.188 37.7908C113.999 37.4577 113.775 37.315 113.397 37.3626C113.185 37.3864 112.961 37.3626 112.677 37.3626L112.689 37.3864ZM112.713 36.2207C113.197 36.2207 113.657 36.2207 114.105 36.2207C114.683 36.2207 115.014 35.9114 115.073 35.3285C115.132 34.7695 114.837 34.2104 114.329 34.1509C113.798 34.0915 113.244 34.139 112.701 34.139V36.2207H112.713Z" fill="#FCEFE0"/>
<path d="M104.264 34.3888C103.933 34.6386 103.627 34.8646 103.45 34.9955C102.954 34.6743 102.565 34.3056 102.104 34.1509C101.373 33.9011 100.653 34.3056 100.252 35.055C99.7562 35.9828 99.8978 37.2436 100.582 37.9454C101.326 38.7305 102.541 38.6472 103.308 37.6718C103.391 37.5648 103.379 37.3745 103.414 37.1604H102.128V36.1969H104.476V39.575H103.438C103.414 39.3966 103.391 39.2063 103.355 38.9446C102.576 39.6345 101.703 39.801 100.771 39.468C99.945 39.1706 99.3668 38.5758 98.9892 37.7908C98.1749 36.066 98.8004 34.0439 100.417 33.2231C101.845 32.4975 103.532 32.9852 104.276 34.3769L104.264 34.3888Z" fill="#FCEFE0"/>
<path d="M142.697 32.9733H147.157V34.1034H144.007V35.6854H146.721V36.7559H144.007V38.445H147.228V39.5988H142.685V32.9852L142.697 32.9733Z" fill="#FCEFE0"/>
<path d="M110.152 32.9852V34.1034H107.025V35.6616H109.692V36.744H107.025V38.4331H110.223V39.575H105.692V32.9852H110.152Z" fill="#FCEFE0"/>
<path d="M164.81 33.6276C164.586 34.0439 164.397 34.3769 164.209 34.7338C163.583 34.3175 162.946 34.0439 162.214 34.1153C161.837 34.1509 161.506 34.258 161.424 34.6981C161.341 35.1501 161.648 35.3523 162.002 35.4713C162.557 35.6497 163.123 35.7805 163.666 35.9828C164.692 36.3515 165.07 36.9343 164.987 37.9454C164.928 38.7424 164.338 39.3728 163.442 39.5869C162.297 39.8605 160.81 39.5512 159.784 38.79C159.961 38.4331 160.149 38.0763 160.338 37.6837C161.07 38.1476 161.801 38.5164 162.651 38.4688C162.828 38.4688 163.029 38.4688 163.17 38.3736C163.335 38.2666 163.536 38.0644 163.548 37.8978C163.571 37.7194 163.442 37.4339 163.288 37.3388C162.993 37.1485 162.639 37.0414 162.309 36.9343C161.931 36.8035 161.542 36.7083 161.164 36.5656C160.598 36.3515 160.149 36.0065 160.067 35.3285C159.972 34.5673 160.149 33.8893 160.798 33.4135C161.66 32.7949 162.616 32.8187 163.571 33.0923C163.961 33.1993 164.327 33.4254 164.775 33.6157L164.81 33.6276Z" fill="#FCEFE0"/>
<path d="M84.3216 33.687C84.121 34.0439 83.944 34.3769 83.7552 34.7219C83.118 34.2937 82.4689 34.0201 81.7255 34.1034C81.3597 34.139 81.0529 34.2818 80.9821 34.6862C80.9113 35.1144 81.1827 35.3285 81.5249 35.4475C82.1267 35.6497 82.7522 35.7924 83.354 36.0184C84.3806 36.411 84.77 37.2317 84.475 38.2904C84.2862 38.9446 83.8378 39.3371 83.2123 39.5155C81.8317 39.8962 80.5691 39.5869 79.3301 38.8256C79.5307 38.4331 79.7077 38.0763 79.9083 37.6837C80.6045 38.1357 81.2889 38.4807 82.0913 38.4688C82.2565 38.4688 82.4454 38.5045 82.5751 38.4331C82.7876 38.3023 83.0236 38.1357 83.118 37.9335C83.236 37.6599 83.0472 37.3982 82.7876 37.2793C82.4808 37.1366 82.1503 37.0295 81.8317 36.9225C81.4777 36.8035 81.1237 36.7083 80.7697 36.5775C80.0853 36.3277 79.6251 35.8995 79.6133 35.1025C79.6015 34.258 79.9201 33.6157 80.6753 33.2231C81.7019 32.6879 83.177 32.8663 84.3216 33.687Z" fill="#FCEFE0"/>
<path d="M61.2759 33.6632C61.0753 34.032 60.8983 34.365 60.7449 34.6505C60.2256 34.4602 59.73 34.2937 59.2226 34.1153C59.14 34.0915 59.0456 34.1034 58.9512 34.0915C58.314 34.0915 57.96 34.2818 57.901 34.6981C57.842 35.0906 58.0898 35.3523 58.7152 35.5426C59.1872 35.6854 59.671 35.7924 60.1312 35.959C61.1815 36.3277 61.5355 36.8749 61.4765 37.9573C61.4293 38.7543 60.8629 39.3847 59.9306 39.575C58.6326 39.8486 57.429 39.5512 56.2844 38.8137C56.485 38.4331 56.662 38.0644 56.8626 37.6837C57.5706 38.1476 58.2786 38.4926 59.1046 38.4688C59.2816 38.4688 59.494 38.4807 59.6238 38.3974C59.8126 38.2666 60.0486 38.0763 60.084 37.874C60.1194 37.6956 59.9424 37.4101 59.7772 37.3031C59.494 37.1247 59.1518 37.0295 58.8332 36.9225C58.491 36.8035 58.137 36.744 57.8066 36.6132C56.9098 36.2682 56.5794 35.8162 56.5676 35.0074C56.5676 34.1153 57.0042 33.4372 57.8302 33.1399C59.0456 32.6998 60.1666 32.9733 61.2759 33.6751V33.6632Z" fill="#FCEFE0"/>
<path d="M85.5842 32.9733H86.835C86.835 33.1637 86.835 33.3421 86.835 33.5086C86.8586 34.6624 86.835 35.8162 86.9058 36.97C86.9412 37.6124 87.248 38.1595 87.9088 38.3736C88.4634 38.5521 89.0062 38.4926 89.4428 38.0525C89.8558 37.6361 89.9738 37.089 89.9738 36.518C89.9738 35.507 89.9738 34.5078 89.9738 33.4967C89.9738 33.3302 89.9738 33.1756 89.9738 32.9733H91.2837C91.2837 33.58 91.2837 34.1985 91.2837 34.8052C91.2719 35.614 91.3073 36.4348 91.1893 37.2317C90.9532 38.8137 89.9384 39.6464 88.3926 39.6345C86.835 39.6345 85.773 38.7781 85.6078 37.1722C85.4662 35.7924 85.5842 34.3888 85.5842 32.9614V32.9733Z" fill="#FCEFE0"/>
<path d="M40.3542 37.3864V39.575H39.068V32.9852C40.0828 32.9852 41.1094 32.9139 42.1006 33.009C43.2098 33.1161 44.0004 34.2223 43.9296 35.3642C43.8588 36.5299 42.9738 37.3745 41.782 37.3982C41.3218 37.3982 40.8616 37.3982 40.3542 37.3982V37.3864ZM40.3778 34.1153V36.2207C40.8262 36.2207 41.251 36.2207 41.6758 36.2207C42.254 36.2207 42.5726 35.8757 42.5962 35.2572C42.6198 34.6148 42.2776 34.1628 41.7112 34.1272C41.2864 34.1034 40.8498 34.1272 40.3778 34.1272V34.1153Z" fill="#FCEFE0"/>
<path d="M167.383 37.3864V39.5869H166.12V32.9733C167.135 32.9733 168.15 32.902 169.141 32.9971C170.227 33.1042 171.065 34.2461 170.97 35.3047C170.864 36.5418 170.026 37.3626 168.822 37.3864C168.362 37.3864 167.902 37.3864 167.371 37.3864H167.383ZM167.43 36.2207C167.878 36.2207 168.303 36.2207 168.74 36.2207C169.306 36.2207 169.601 35.8995 169.648 35.281C169.684 34.6862 169.389 34.1985 168.87 34.139C168.398 34.0915 167.926 34.139 167.43 34.139V36.2325V36.2207Z" fill="#FCEFE0"/>
<path d="M177 39.5869C175.678 39.6821 175.655 39.694 175.242 38.4807C175.112 38.0882 174.947 37.8978 174.522 37.9692C174.333 38.0049 174.133 37.9692 173.944 37.9692C172.776 37.9692 172.752 37.9692 172.386 39.0635C172.245 39.4918 172.056 39.6821 171.607 39.6226C171.36 39.5869 171.112 39.6226 170.793 39.6226C171.147 38.7186 171.478 37.874 171.808 37.0295C172.304 35.7805 172.799 34.5316 173.271 33.2588C173.413 32.8663 173.696 32.9733 173.956 32.9614C174.192 32.9614 174.439 32.8901 174.569 33.235C175.348 35.2929 176.162 37.3388 176.953 39.3966C176.976 39.4442 176.976 39.5036 177 39.5988V39.5869ZM174.782 36.9819C174.487 36.1374 174.215 35.3404 173.908 34.4483C173.602 35.3404 173.318 36.1374 173.012 36.9819H174.782Z" fill="#FCEFE0"/>
<path d="M56.0248 39.6107C55.6118 39.6107 55.246 39.6226 54.8802 39.6107C54.774 39.6107 54.6796 39.4918 54.5852 39.4085C54.5498 39.3728 54.538 39.3014 54.5144 39.242C54.3492 38.8256 54.2902 38.2547 53.9834 38.0406C53.6766 37.8265 53.122 37.9692 52.6735 37.9692C51.7885 37.9692 51.7885 37.9692 51.4699 38.8018C51.2733 39.3411 50.8839 39.6107 50.3017 39.6107C50.1601 39.6107 50.0185 39.6107 49.8061 39.6107C49.9005 39.3728 49.9595 39.1944 50.0303 39.016C50.7737 37.1247 51.5289 35.2334 52.2369 33.3183C52.4139 32.8306 52.7443 32.9971 53.0512 32.9496C53.358 32.902 53.4878 33.0447 53.594 33.3302C54.3374 35.2929 55.1044 37.2436 55.8714 39.1944C55.9186 39.3133 55.954 39.4442 56.013 39.6107H56.0248ZM52.9213 34.4364C52.6027 35.3404 52.3195 36.1493 52.0245 36.9938H53.7946C53.5114 36.1493 53.2282 35.3404 52.9213 34.4364Z" fill="#FCEFE0"/>
<path d="M76.4037 34.4007C76.0615 34.6386 75.7546 34.8527 75.554 34.9955C75.1174 34.6981 74.7752 34.365 74.374 34.2104C73.607 33.913 72.8164 34.2699 72.4152 35.0193C72.0376 35.733 71.9904 36.4823 72.2736 37.2317C72.5214 37.8859 72.958 38.3617 73.6896 38.4569C74.4684 38.5639 75.0466 38.219 75.4478 37.4934C75.8018 37.6956 76.1441 37.8859 76.5099 38.1C76.0614 39.0635 75.2709 39.4799 74.3268 39.6226C72.3326 39.9319 70.952 38.2666 70.7986 36.6727C70.6216 34.8646 71.6246 33.3897 73.2058 33.0209C74.5274 32.7117 75.7664 33.235 76.4037 34.4126V34.4007Z" fill="#FCEFE0"/>
<path d="M120.359 39.5869H119.085C119.085 38.9803 119.108 38.3617 119.085 37.7551C119.073 37.4577 118.99 37.1366 118.849 36.863C118.235 35.6973 117.586 34.5554 116.949 33.4016C116.878 33.2707 116.819 33.1399 116.713 32.9496C117.173 32.9496 117.574 32.9258 117.964 32.9614C118.082 32.9614 118.223 33.1399 118.282 33.2707C118.754 34.1866 119.215 35.1025 119.722 36.1017C120.111 35.3642 120.454 34.6862 120.808 34.0201C120.819 33.9963 120.831 33.9606 120.843 33.9368C121.213 33.2073 121.838 32.8901 122.719 32.9852C122.672 33.1042 122.637 33.2112 122.578 33.3064C121.94 34.4602 121.315 35.614 120.654 36.7559C120.442 37.1247 120.336 37.4815 120.347 37.8978C120.371 38.4331 120.347 38.9803 120.347 39.575L120.359 39.5869Z" fill="#FCEFE0"/>
<path d="M61.9839 34.139V32.9852H67.4355V34.1034H65.4059V39.5869H64.1079V34.139H61.9839Z" fill="#FCEFE0"/>
<path d="M46.1835 38.445H49.5229V39.5869H44.9326V32.9852H46.1835V38.445Z" fill="#FCEFE0"/>
<path d="M68.4032 32.9971H69.6658V39.5869H68.4032V32.9971Z" fill="#FCEFE0"/>
<path d="M156.421 32.9971V39.575H155.205V32.9971H156.421Z" fill="#FCEFE0"/>
<path d="M119.486 50.6135C118.212 51.5056 117.291 51.4937 116.571 50.5897C115.852 49.6857 115.934 48.3178 116.748 47.5565C117.563 46.7952 118.448 46.9023 119.486 47.8658C119.734 47.6992 119.297 47.164 119.911 47.1283C119.911 47.3424 119.911 47.5327 119.911 47.723C119.911 48.9363 119.934 50.1615 119.899 51.3748C119.887 51.7197 119.734 52.1241 119.521 52.3858C118.825 53.2304 117.091 53.1709 116.394 52.3144C116.269 52.1638 116.288 52.021 116.453 51.8862C117.22 52.6356 118.129 52.8378 118.872 52.4453C119.451 52.136 119.651 51.5413 119.498 50.6016L119.486 50.6135ZM119.533 49.2218C119.533 48.1156 118.967 47.4494 118.035 47.4494C117.161 47.4494 116.501 48.1988 116.489 49.198C116.489 50.1496 117.232 50.9703 118.094 50.9584C118.979 50.9584 119.521 50.2804 119.521 49.2218H119.533Z" fill="#FCEFE0"/>
<path d="M113.02 12.978C113.02 12.1692 113.621 11.5625 114.424 11.5744C115.214 11.5744 115.875 12.2286 115.875 13.0137C115.875 13.7869 115.167 14.4649 114.4 14.4411C113.621 14.4173 113.02 13.7869 113.031 12.978H113.02Z" fill="#FCEFE0"/>
<path d="M82.9999 11.5744C83.826 11.5744 84.4278 12.2048 84.416 13.0375C84.416 13.8107 83.7316 14.4649 82.9764 14.453C82.2093 14.4411 81.5485 13.7393 81.5603 12.9899C81.5721 12.2048 82.2211 11.5744 82.9999 11.5744Z" fill="#FCEFE0"/>
<path d="M57.3346 47.7944C58.491 46.8547 59.494 46.8547 60.2492 47.723C61.0045 48.5914 60.9455 50.0782 60.1312 50.8395C59.3406 51.577 58.3376 51.458 57.3464 50.447V52.8259C57.075 52.933 56.9334 52.9211 56.9334 52.5999C56.9334 50.8752 56.9334 49.1385 56.9334 47.4138C56.9334 47.3186 57.0514 47.2234 57.1222 47.1283C57.193 47.2234 57.2756 47.3067 57.311 47.4138C57.3464 47.5089 57.311 47.616 57.311 47.7944H57.3346ZM58.7978 47.4494C57.9718 47.4494 57.3582 48.0561 57.3464 48.8768C57.3464 50.221 57.8892 50.9703 58.845 50.9703C59.6946 50.9703 60.379 50.1615 60.3672 49.1861C60.3672 48.2464 59.6356 47.4494 58.786 47.4494H58.7978Z" fill="#FCEFE0"/>
<path d="M95.8857 50.554C94.7883 51.5175 93.8089 51.5532 93.0065 50.7086C92.2159 49.8879 92.2159 48.4843 93.0065 47.6398C93.7617 46.819 94.6821 46.8785 95.8621 47.8777V45.5344C96.2279 45.4035 96.2869 45.5582 96.2869 45.8436C96.2869 47.3424 96.2869 48.853 96.2869 50.3518C96.2869 50.5064 96.3459 50.673 96.3577 50.8276C96.3577 50.9584 96.3577 51.1012 96.3577 51.232C96.2279 51.1369 96.0627 51.0655 95.9683 50.9465C95.9093 50.8752 95.9329 50.7205 95.9211 50.5421L95.8857 50.554ZM95.8503 49.2218C95.8503 48.1274 95.2839 47.4494 94.3635 47.4375C93.5139 47.4375 92.8059 48.2226 92.8059 49.1861C92.8059 50.1139 93.5847 50.9584 94.4343 50.9465C95.3311 50.9347 95.8503 50.2923 95.8503 49.2099V49.2218Z" fill="#FCEFE0"/>
<path d="M75.7193 49.3526C75.7311 50.0663 76.1559 50.6611 76.7577 50.899C77.3595 51.125 78.0085 50.9465 78.4687 50.447C78.5631 50.3399 78.7283 50.2923 78.8935 50.2685C78.4451 51.4104 76.8993 51.6721 75.9789 50.8157C75.3063 50.1853 75.1174 49.3883 75.3771 48.5081C75.6367 47.6517 76.2267 47.164 77.1235 47.0688C78.1973 46.9499 79.3419 48.0204 79.2593 49.1147C79.2593 49.198 79.0469 49.3407 78.9407 49.3407C78.0439 49.3645 77.1471 49.3407 76.2621 49.3407C76.0969 49.3407 75.9317 49.3407 75.7429 49.3407L75.7193 49.3526ZM78.8227 48.9839C78.7165 47.9966 78.0203 47.3424 77.1589 47.4019C76.3211 47.4613 75.6839 48.1512 75.7311 48.9839H78.8227Z" fill="#FCEFE0"/>
<path d="M97.6793 49.3526C97.6793 50.0544 98.116 50.673 98.7178 50.899C99.3314 51.125 99.9804 50.9346 100.452 50.4232C100.535 50.328 100.7 50.2923 100.913 50.1972C100.665 51.0774 99.5084 51.5413 98.6234 51.232C97.6321 50.899 97.0303 49.7808 97.2781 48.6984C97.5259 47.6279 98.4582 46.938 99.4612 47.0926C100.559 47.2591 101.267 48.175 101.184 49.3526H97.6793ZM97.6557 48.972H100.771C100.736 48.0918 100.11 47.4375 99.2842 47.4019C98.4345 47.3543 97.7855 47.9847 97.6675 48.972H97.6557Z" fill="#FCEFE0"/>
<path d="M64.3203 50.6849C63.7067 51.1963 63.0813 51.458 62.3379 51.2558C61.7715 51.1012 61.4175 50.673 61.3939 50.1377C61.3703 49.5905 61.6299 49.2218 62.2081 48.9839C62.8217 48.7341 63.4353 48.8055 64.0489 48.9482C64.1315 48.972 64.2141 48.9839 64.2967 49.0077C64.4737 47.7825 63.6595 47.1045 62.5385 47.5089C62.3615 47.5684 62.1963 47.6992 62.0193 47.7587C61.9249 47.7944 61.7951 47.7349 61.6889 47.6754C62.2553 47.2234 62.8453 46.9855 63.5297 47.1164C64.1669 47.2353 64.6153 47.6517 64.6861 48.3059C64.7451 48.8411 64.7333 49.3883 64.7569 49.9236C64.7805 50.3637 64.8159 50.7919 64.8395 51.2439C64.4383 51.3034 64.3793 51.006 64.3085 50.6967L64.3203 50.6849ZM63.0931 49.0909C62.9043 49.1266 62.6565 49.1623 62.4205 49.2337C62.0429 49.3645 61.7597 49.6143 61.7833 50.0544C61.8069 50.4826 62.0311 50.78 62.4441 50.9228C63.0105 51.1131 63.8129 50.8752 64.1787 50.3994C64.6035 49.8284 64.3793 49.2694 63.6949 49.1742C63.5179 49.1504 63.3409 49.1266 63.0931 49.1028V49.0909Z" fill="#FCEFE0"/>
<path d="M130.732 49.198C130.732 50.3637 129.847 51.3153 128.749 51.3153C127.628 51.3153 126.731 50.3637 126.743 49.1861C126.743 48.0323 127.664 47.0569 128.726 47.045C129.823 47.045 130.732 48.0204 130.732 49.198ZM130.295 49.1861C130.295 48.2226 129.611 47.4494 128.737 47.4494C127.864 47.4494 127.144 48.2345 127.144 49.2099C127.144 50.1496 127.864 50.9584 128.714 50.9584C129.587 50.9584 130.295 50.1615 130.295 49.1861Z" fill="#FCEFE0"/>
<path d="M42.962 49.1861C42.962 48.0323 43.8706 47.0569 44.9444 47.0569C46.0301 47.0569 46.9623 48.0442 46.9505 49.2099C46.9505 50.3756 46.0537 51.3153 44.9562 51.3272C43.8352 51.3272 42.9502 50.3875 42.9502 49.1861H42.962ZM46.5375 49.2099C46.5375 48.2345 45.8295 47.4375 44.9444 47.4494C44.083 47.4494 43.3986 48.2107 43.3868 49.1861C43.375 50.1377 44.0594 50.9346 44.9208 50.9584C45.7823 50.9822 46.5375 50.1734 46.5375 49.2099Z" fill="#FCEFE0"/>
<path d="M102.647 47.9728V51.1844C102.329 51.3272 102.258 51.2082 102.258 50.9346C102.258 50.1258 102.258 49.3169 102.258 48.5081C102.258 48.3416 102.258 48.1869 102.258 48.0799C102.022 47.9609 101.845 47.8658 101.668 47.7825C101.845 47.7111 102.01 47.6279 102.234 47.5327C102.258 46.7833 102.211 45.915 103.119 45.5106C103.662 45.2727 104.193 45.4273 104.759 45.7723C104.606 45.8555 104.488 45.9745 104.429 45.9507C103.933 45.7604 103.45 45.6176 103.013 46.0458C102.588 46.4622 102.624 47.0212 102.647 47.616H104.63C104.63 48.0085 104.63 48.3416 104.63 48.6746C104.63 49.424 104.63 50.1734 104.63 50.9228C104.63 51.0417 104.5 51.1725 104.429 51.2915C104.37 51.2677 104.323 51.2439 104.264 51.232V47.9847H102.647V47.9728Z" fill="#FCEFE0"/>
<path d="M114.825 51.1844C114.825 50.4707 114.825 49.7452 114.825 49.0315C114.825 48.7817 114.825 48.52 114.766 48.2702C114.613 47.5327 114.164 47.2829 113.444 47.5089C112.736 47.7349 112.3 48.3416 112.3 49.0909C112.3 49.7808 112.3 50.4707 112.3 51.1606C111.981 51.3272 111.887 51.2201 111.887 50.9109C111.887 49.7689 111.887 48.627 111.899 47.4851C111.899 47.3662 112.04 47.2472 112.111 47.1283C112.17 47.2472 112.253 47.3543 112.288 47.4732C112.323 47.5922 112.312 47.7349 112.312 47.7587C112.795 47.5327 113.267 47.2234 113.787 47.0926C114.518 46.9023 115.061 47.2591 115.144 48.0085C115.25 49.0077 115.226 50.0187 115.238 51.0179C115.238 51.1012 115.073 51.1963 114.978 51.2796C114.931 51.2439 114.884 51.2082 114.837 51.1725L114.825 51.1844Z" fill="#FCEFE0"/>
<path d="M50.8445 50.5659C50.3607 50.8157 49.9005 51.1369 49.3931 51.2796C48.6379 51.4937 47.9771 51.0536 47.8945 50.2685C47.7883 49.305 47.8119 48.3178 47.8001 47.3543C47.8001 47.2829 47.9299 47.2115 48.0007 47.1402C48.0715 47.2234 48.1659 47.2829 48.1895 47.3781C48.2249 47.5089 48.1895 47.6516 48.1895 47.7825C48.1895 48.4605 48.1777 49.1385 48.2131 49.8046C48.2721 50.8395 49.0273 51.2558 49.9241 50.7443C50.4787 50.4351 50.8091 49.9712 50.7855 49.2813C50.7619 48.6627 50.7855 48.0442 50.7855 47.4375C50.7855 47.1759 50.8799 47.0926 51.1395 47.164C51.2811 48.52 50.9861 49.876 51.3519 51.232C50.6793 51.2796 50.8799 50.7919 50.8327 50.5659H50.8445Z" fill="#FCEFE0"/>
<path d="M86.5636 47.8182C87.0356 47.5803 87.4722 47.2472 87.9678 47.1164C88.8174 46.8904 89.3838 47.2948 89.4664 48.175C89.549 49.1147 89.5136 50.0663 89.5136 51.0179C89.5136 51.1131 89.3602 51.1963 89.2776 51.2915C89.2304 51.2677 89.195 51.2439 89.1478 51.2201C89.1478 50.5659 89.1478 49.8998 89.1478 49.2456C89.1478 48.9125 89.1242 48.5795 89.0652 48.2583C88.959 47.6279 88.6286 47.39 88.0032 47.4613C87.2716 47.5446 86.6226 48.2464 86.6226 48.9839C86.6226 49.6262 86.6226 50.2804 86.6226 50.9228C86.6226 51.2201 86.5046 51.2915 86.2096 51.1963C86.2096 49.9236 86.2096 48.6508 86.2096 47.3781C86.2096 47.2948 86.3276 47.2234 86.3866 47.1402C86.4456 47.2234 86.54 47.2948 86.5636 47.39C86.5872 47.5565 86.5636 47.7349 86.5636 47.8182Z" fill="#FCEFE0"/>
<path d="M135.027 51.2439C134.496 51.2796 134.661 50.7919 134.614 50.5659C134.177 50.8038 133.764 51.125 133.28 51.2677C132.419 51.5294 131.735 51.0655 131.652 50.1734C131.569 49.2456 131.593 48.3178 131.581 47.39C131.581 47.3067 131.699 47.2353 131.77 47.1521C131.841 47.2353 131.935 47.3186 131.982 47.4138C132.018 47.4851 131.982 47.5922 131.982 47.6754C131.982 48.3178 131.982 48.972 131.982 49.6143C131.994 50.4945 132.372 50.9822 133.021 50.9703C133.788 50.9584 134.567 50.2328 134.578 49.5073C134.578 48.8292 134.578 48.1512 134.578 47.4851C134.578 47.3781 134.696 47.2591 134.755 47.1521C134.826 47.2591 134.921 47.3543 134.944 47.4732C134.98 47.6517 134.944 47.8301 134.944 48.0085C134.956 49.0671 134.98 50.1377 135.003 51.2439H135.027Z" fill="#FCEFE0"/>
<path d="M106.093 51.2796C106.01 51.1844 105.857 51.0893 105.857 50.9941C105.845 49.7927 105.845 48.5914 105.857 47.39C105.857 47.3067 105.975 47.2234 106.034 47.1402C106.093 47.2234 106.199 47.2948 106.211 47.3781C106.234 47.5446 106.211 47.723 106.211 47.9966C106.647 47.497 107.084 47.164 107.686 47.0807C108.465 46.9736 108.996 47.271 109.066 48.0442C109.149 49.079 109.09 50.1377 109.09 51.2201C108.83 51.3272 108.76 51.1844 108.76 50.8871C108.76 50.1258 108.76 49.3526 108.748 48.5914C108.748 48.1631 108.677 47.723 108.229 47.5208C107.78 47.3305 107.344 47.4494 106.966 47.723C106.494 48.068 106.211 48.4962 106.223 49.1266C106.246 49.8165 106.223 50.5064 106.223 51.1963C106.175 51.2201 106.14 51.2558 106.093 51.2796Z" fill="#FCEFE0"/>
<path d="M123.132 52.9449C123.262 52.8021 123.345 52.6951 123.427 52.6237C123.557 52.5167 123.734 52.4453 123.817 52.3144C124.171 51.6959 124.336 51.1131 123.923 50.3994C123.415 49.5073 123.061 48.52 122.648 47.5803C122.601 47.4613 122.554 47.3424 122.507 47.2115C122.814 47.045 122.932 47.2115 123.026 47.4494C123.439 48.4129 123.852 49.3764 124.277 50.3399C124.336 50.4707 124.395 50.6016 124.501 50.8276C124.973 49.6619 125.422 48.5676 125.858 47.4851C125.941 47.271 126.023 47.045 126.366 47.2234C126.023 48.068 125.669 48.9125 125.327 49.757C124.961 50.6611 124.572 51.5532 124.218 52.4572C124.041 52.9092 123.734 53.0757 123.132 52.9687V52.9449Z" fill="#FCEFE0"/>
<path d="M38.6314 45.5819C38.7848 45.689 38.9972 45.7723 39.0916 45.915C39.599 46.6882 40.0828 47.4851 40.5784 48.2702C40.661 48.4129 40.7554 48.5438 40.8734 48.7103C41.4634 47.7706 42.0298 46.8547 42.6198 45.9507C42.726 45.7842 42.9384 45.689 43.0918 45.57C43.1272 45.6176 43.1744 45.6533 43.2098 45.7009C42.7732 46.4027 42.372 47.1402 41.8764 47.8063C41.2392 48.6627 40.9206 49.5786 41.0622 50.6373C41.0858 50.78 41.0622 50.9346 41.0622 51.0893C41.0622 51.1131 41.0504 51.1488 41.0268 51.2082C40.7908 51.2796 40.602 51.2796 40.6374 50.9346C40.6374 50.899 40.6374 50.8752 40.6374 50.8395C40.838 49.5786 40.4132 48.5081 39.658 47.5208C39.2332 46.9499 38.891 46.3194 38.5134 45.7128C38.5488 45.6652 38.5842 45.6295 38.6196 45.5819H38.6314Z" fill="#FCEFE0"/>
<path d="M74.3622 51.1963C73.9846 51.3272 73.9846 51.125 73.9846 50.8871C73.9846 50.0782 73.9846 49.2694 73.9256 48.4605C73.8666 47.5089 73.194 47.164 72.3562 47.616C71.7662 47.9371 71.4004 48.4129 71.4358 49.1385C71.4594 49.7333 71.4358 50.3399 71.4358 50.9465C71.4358 51.2082 71.3532 51.3034 71.0582 51.2082C71.0582 49.9236 71.0582 48.627 71.0582 47.3424C71.0582 47.271 71.1644 47.2115 71.2234 47.1402C71.2824 47.1996 71.3886 47.2591 71.4004 47.3305C71.424 47.5208 71.4004 47.723 71.4004 48.0085C71.8488 47.4851 72.3208 47.1402 72.958 47.0688C73.6306 46.9974 74.138 47.271 74.2442 47.9371C74.3504 48.5557 74.3268 49.1861 74.3504 49.8165C74.3622 50.2685 74.3504 50.7205 74.3504 51.1844L74.3622 51.1963Z" fill="#FCEFE0"/>
<path d="M68.7218 45.7723C69.3 45.6652 69.123 46.0577 69.1466 46.2718C69.1702 46.5335 69.1466 46.8071 69.1466 47.0331C69.4298 47.3067 69.9254 46.8785 70.126 47.4613H69.1466C69.1466 48.5081 69.1348 49.5073 69.1702 50.5064C69.1702 50.6492 69.4416 50.8395 69.6186 50.8871C69.8192 50.9346 70.0434 50.8276 70.3502 50.7681C70.3148 50.899 70.2912 51.1131 70.244 51.1131C69.8782 51.1607 69.477 51.2439 69.123 51.1725C68.7572 51.0893 68.7218 50.7086 68.7218 50.3637C68.7218 49.424 68.7218 48.4724 68.7218 47.497C68.5212 47.4732 68.3559 47.4613 68.1789 47.4375C68.1553 47.39 68.1436 47.3543 68.1199 47.3067C68.2852 47.2234 68.4504 47.1402 68.6982 47.0212V45.7723H68.7218Z" fill="#FCEFE0"/>
<path d="M80.4511 47.8777C80.8523 47.6279 81.2299 47.3662 81.6193 47.164C81.7137 47.1164 81.8907 47.2234 82.0323 47.2591C81.9261 47.3543 81.8435 47.5089 81.7255 47.5327C80.8995 47.7468 80.4865 48.2583 80.4865 49.1028C80.4865 49.7214 80.4865 50.328 80.4865 50.9465C80.4865 51.2082 80.4039 51.3034 80.1089 51.1844C80.1089 49.9236 80.1089 48.6508 80.1089 47.3781C80.1089 47.2948 80.2151 47.2115 80.2741 47.1402C80.3331 47.2234 80.4275 47.2948 80.4393 47.39C80.4629 47.5803 80.4393 47.7706 80.4393 47.8777H80.4511Z" fill="#FCEFE0"/>
<path d="M66.3027 48.0323C66.7393 47.4851 67.1405 47.1045 67.8839 47.1996C67.7895 47.3067 67.7187 47.4851 67.6125 47.5208C66.6331 47.8182 66.3145 48.2345 66.3145 49.2694C66.3145 49.9117 66.3145 50.554 66.3145 51.1963C66.2673 51.2201 66.2319 51.2558 66.1847 51.2796C66.1021 51.1844 65.9487 51.0893 65.9487 50.9941C65.9369 49.7927 65.9369 48.5914 65.9487 47.39C65.9487 47.3067 66.0549 47.2234 66.1139 47.1402C66.1847 47.2353 66.2791 47.3186 66.3027 47.4138C66.3381 47.5684 66.3027 47.7349 66.3027 48.0323Z" fill="#FCEFE0"/>
<path d="M52.7915 48.0442C53.2282 47.4732 53.6412 47.1045 54.3728 47.2353C54.2784 47.3424 54.184 47.497 54.066 47.5327C53.1574 47.7944 52.7915 48.2583 52.7915 49.2099C52.7915 49.8403 52.7915 50.4707 52.7915 51.1012C52.7915 51.125 52.7797 51.1606 52.7679 51.2082C52.5437 51.3034 52.4257 51.2558 52.4257 50.9703C52.4257 49.7808 52.4257 48.6032 52.4257 47.4138C52.4257 47.3186 52.5437 47.2353 52.6145 47.1402C52.6735 47.2353 52.7561 47.3305 52.7797 47.4375C52.8033 47.5922 52.7797 47.7587 52.7797 48.0323L52.7915 48.0442Z" fill="#FCEFE0"/>
<path d="M85.006 51.1963C84.6992 51.3153 84.593 51.232 84.593 50.9346C84.593 49.7689 84.593 48.6032 84.593 47.4256C84.593 47.3305 84.711 47.2353 84.77 47.1402C84.8408 47.2234 84.9824 47.3067 84.9824 47.39C84.9942 48.6627 84.9824 49.9355 84.9824 51.1963H85.006Z" fill="#FCEFE0"/>
<path d="M137.493 48.6389C136.549 48.6389 135.853 47.949 135.841 47.0093C135.841 46.0577 136.549 45.3321 137.505 45.3203C138.461 45.3203 139.169 46.0339 139.169 46.9974C139.169 47.9728 138.484 48.6389 137.493 48.6389ZM137.505 45.4868C136.632 45.4868 136.006 46.1529 136.018 47.045C136.018 47.9014 136.691 48.5438 137.54 48.5319C138.39 48.52 139.039 47.8658 139.039 47.0212C139.039 46.1648 138.366 45.4868 137.505 45.4987V45.4868Z" fill="#FCEFE0"/>
<path d="M110.542 51.2915C110.471 51.1844 110.329 51.0774 110.317 50.9703C110.306 49.7927 110.306 48.6032 110.317 47.4256C110.317 47.3305 110.435 47.2353 110.494 47.1402C110.553 47.2353 110.671 47.3186 110.671 47.4138C110.683 48.6746 110.671 49.9236 110.671 51.1844L110.518 51.2915H110.542Z" fill="#FCEFE0"/>
<path d="M84.9824 46.1648C84.5694 46.3075 84.593 46.0458 84.5812 45.796C84.5694 45.4868 84.711 45.4511 84.9824 45.5225V46.1767V46.1648Z" fill="#FCEFE0"/>
<path d="M110.683 45.5225V46.1648C110.447 46.2481 110.294 46.2243 110.317 45.9388C110.329 45.7366 110.211 45.4035 110.683 45.5225Z" fill="#FCEFE0"/>
<path d="M138.272 47.9966C137.8 47.842 137.8 47.0093 137.045 47.3424C137.021 47.5684 137.009 47.8063 136.986 48.0561C136.95 48.0561 136.915 48.0561 136.879 48.0561V46.0102C137.599 45.8436 138.059 45.9388 138.236 46.3432C138.413 46.7595 138.236 47.0569 137.859 47.2829C138 47.5327 138.142 47.7706 138.272 48.0085V47.9966ZM137.446 47.0807C137.8 47.1045 138.095 47.0569 138.095 46.6168C138.095 46.1767 137.788 46.1529 137.458 46.1291C137.092 46.1053 136.997 46.2481 137.021 46.5811C137.033 46.9023 137.021 47.1759 137.446 47.0688V47.0807Z" fill="#FCEFE0"/>
</svg>
