<svg width="89" height="27" viewBox="0 0 89 27" fill="none" xmlns="http://www.w3.org/2000/svg">
<path d="M7.33251 0.660848C7.87839 0.351805 8.4658 0.224552 9.06507 0.127597C10.2577 -0.0602525 11.4325 -0.0784315 12.5895 0.333626C13.4973 0.654788 14.1559 1.2244 14.5179 2.17576C14.862 3.06654 15.0341 3.97549 15.1172 4.91473C15.135 5.1147 15.0697 5.33891 14.9925 5.52676C14.9154 5.72067 14.8739 5.90852 14.9629 6.10243C15.1528 6.53267 15.3367 6.96896 15.5622 7.38102C15.8292 7.85973 15.7164 8.19301 15.1943 8.32027C14.9451 8.38086 14.8679 8.52024 14.9807 8.7505C15.0934 8.97471 15.0637 9.16862 14.9154 9.36859C14.8679 9.42919 14.8383 9.53826 14.8561 9.61098C14.9035 9.82912 14.8383 9.9988 14.684 10.12C14.4763 10.2775 14.4348 10.4593 14.4704 10.7138C14.5891 11.5925 14.0432 12.1682 13.0761 12.1742C12.5658 12.1742 12.0614 12.1257 11.5512 12.0833C11.3257 12.0651 11.213 12.1439 11.1299 12.356C10.8095 13.1741 10.8036 14.0285 10.8629 14.8889C10.9163 15.6767 11.1655 16.3978 11.5808 17.0583C12.0911 17.8703 12.6192 18.6702 13.1295 19.4761C13.9008 20.7062 14.2687 22.0394 14.1263 23.5058C14.0788 24.0209 14.0373 24.542 13.9779 25.0571C13.9601 25.1964 13.8949 25.3298 13.8355 25.4994C13.7406 25.4206 13.6635 25.3661 13.5923 25.3055C12.4115 24.2996 11.1714 23.3785 9.78301 22.6817C8.99387 22.2878 8.15726 22.1363 7.29098 22.0575C6.20517 21.9545 5.11935 21.8273 4.03354 21.6879C3.7428 21.6515 3.46393 21.5243 3.19099 21.391C3.60633 21.3243 4.02167 21.2758 4.43701 21.191C5.41009 20.9789 6.3891 20.7911 7.33845 20.4941C8.04452 20.2699 8.7506 19.9791 9.36174 19.5185C10.1865 18.9065 10.6493 18.0884 10.6849 17.0341C10.7027 16.5978 10.5722 16.1918 10.3704 15.81C9.96695 15.0707 9.40327 14.5011 8.6972 14.0588C8.05046 13.6528 7.40371 13.2286 6.79851 12.7559C6.52557 12.5499 6.30603 12.2409 6.13396 11.9318C5.78389 11.2956 5.86696 10.7623 6.34757 10.2291C6.79851 9.72611 7.27911 9.25346 7.71225 8.73838C8.5726 7.7143 9.04134 6.52661 9.02947 5.16924C9.02947 4.17545 8.68533 3.2665 8.25813 2.39391C7.96739 1.80612 7.64698 1.23652 7.33251 0.654788V0.660848Z" fill="#141414"/>
<path d="M0.568424 11.2956C0.515023 11.2168 0.467556 11.1441 0.420089 11.0774C0.277687 10.8835 0.289553 10.7078 0.449756 10.5199C0.78796 10.12 0.78796 9.92608 0.461622 9.52008C0.354821 9.38677 0.24802 9.26557 0.141218 9.13226C-0.0664512 8.88382 -0.048651 8.70809 0.218353 8.5263C0.443822 8.36874 0.681159 8.21725 0.912562 8.0597C1.31603 7.78096 1.63644 7.42344 1.90344 7.01138C1.98058 6.89019 1.99244 6.78717 1.87377 6.67204C1.80257 6.60538 1.76697 6.49631 1.68391 6.35087C1.82037 6.38723 1.90344 6.41147 2.03398 6.44783C2.03398 6.14485 2.02804 5.84792 2.03398 5.55706C2.08144 4.25423 2.57985 3.18167 3.65973 2.44845C4.14034 2.12123 4.67435 1.86066 5.18462 1.57586C5.34482 1.48496 5.46942 1.51526 5.59402 1.66069C6.13396 2.28484 6.6383 2.92716 6.86377 3.74522C7.05958 4.46026 7.00024 5.16924 6.76291 5.86004C6.63237 6.2418 6.34757 6.50237 6.05683 6.76293C5.72456 7.0538 5.40415 7.3689 5.11342 7.70218C4.98882 7.84761 4.94728 8.07788 4.85828 8.29603C4.92948 8.28997 4.95322 8.29603 4.95322 8.28391C5.10748 7.78096 5.44569 7.43556 5.86696 7.16287C6.32977 6.86595 6.75104 6.53873 7.07144 6.07213C7.37405 5.62978 7.52238 5.15106 7.53425 4.61175C7.54612 3.83611 7.46305 3.0726 7.29098 2.31514C7.27318 2.22424 7.26725 2.12729 7.24351 1.96974C7.30878 2.04245 7.33251 2.06063 7.34438 2.08487C7.63512 2.61206 7.92586 3.13925 8.21066 3.66644C8.6972 4.58145 8.63193 5.53282 8.4124 6.50237C8.30559 6.97502 8.09199 7.38708 7.80719 7.76884C7.56392 8.09606 7.36811 8.4657 7.10704 8.7808C6.86971 9.07167 6.5849 9.32617 6.3001 9.57462C5.91443 9.90184 5.60589 10.2897 5.39822 10.7563C5.25582 11.0714 5.23209 11.3925 5.34482 11.7137C5.53469 12.2469 5.80169 12.7256 6.27043 13.065C6.50184 13.2347 6.72137 13.4225 6.95871 13.5861C7.13078 13.7073 7.20791 13.8467 7.13671 14.0527C7.04771 14.3012 6.97651 14.5617 6.86971 14.8041C6.54337 15.5555 6.22297 16.313 5.86696 17.0522C5.71863 17.3552 5.48722 17.6097 5.27362 17.8764C5.39229 17.3431 5.47536 16.822 5.28549 16.2705C5.06595 16.4645 4.86421 16.6462 4.65654 16.822C4.24121 17.1734 3.77247 17.3673 3.22066 17.2462C2.85279 17.1674 2.56798 16.8523 2.51458 16.4766C2.46118 16.1312 2.62732 15.8767 2.99519 15.7555C3.32153 15.6403 3.6716 15.7434 3.78433 15.9736C3.61226 15.9736 3.42239 15.9494 3.24439 15.9736C2.95959 16.0221 2.80532 16.1857 2.82312 16.3675C2.84685 16.5978 3.11386 16.8462 3.35713 16.8341C3.4936 16.8341 3.64193 16.8038 3.76653 16.7493C4.35987 16.4826 4.68028 16.01 4.76335 15.3616C4.79301 15.1071 4.68621 14.9192 4.49041 14.7738C4.1166 14.4829 3.67753 14.3799 3.22659 14.3678C2.73412 14.3496 2.24165 14.3678 1.74917 14.4042C1.1321 14.4526 0.615891 14.1133 0.515023 13.5013C0.485356 13.3195 0.515023 13.1013 0.592158 12.9317C0.740493 12.6045 0.734559 12.3257 0.520957 12.0348C0.271753 11.6955 0.28362 11.5925 0.592158 11.3137L0.568424 11.2956ZM7.27911 7.57493C6.92311 8.08394 6.4247 8.42934 5.93816 8.78686C5.37449 9.20498 4.94728 9.73823 4.66248 10.3866C4.18781 11.4713 4.35394 12.5136 5.10155 13.2407C5.13122 13.271 5.17275 13.2892 5.20835 13.3134C4.38361 12.2772 4.37174 11.0168 5.24395 9.88972C5.59402 9.43525 6.02716 9.05349 6.43064 8.64749C6.75697 8.32027 7.07144 7.99304 7.27911 7.56887V7.57493Z" fill="#141414"/>
<path d="M20.6471 14.3012C20.1665 14.3012 19.6859 14.3072 19.2112 14.2951C19.1163 14.2951 18.9739 14.2284 18.9501 14.1557C18.9145 14.0527 18.9205 13.8709 18.9857 13.8043C19.4782 13.3013 19.6147 12.6772 19.6265 11.9985C19.6503 10.7441 19.674 9.48978 19.7096 8.23543C19.7215 7.90215 19.6443 7.61735 19.4189 7.38102C19.3477 7.30224 19.2824 7.21741 19.229 7.12651C19.0629 6.84777 19.1934 6.59326 19.5079 6.5872C20.1131 6.57508 20.7183 6.56902 21.3235 6.57508C22.2135 6.5872 23.1035 6.60538 23.9935 6.63568C24.7708 6.66598 25.4294 6.96896 25.9338 7.58705C26.2186 7.93851 26.2779 8.35056 26.1236 8.77474C25.9516 9.2474 25.6786 9.65339 25.2514 9.9382C25.0853 10.0473 25.0794 10.1624 25.2514 10.2654C25.4294 10.3806 25.6134 10.4775 25.7973 10.5805C27.0789 11.3016 26.9306 12.7075 26.0643 13.5134C25.5125 14.0285 24.8479 14.2345 24.1063 14.2284C23.5307 14.2284 22.9552 14.2648 22.3796 14.2709C21.8041 14.2769 21.2286 14.2709 20.653 14.2709C20.653 14.283 20.653 14.289 20.653 14.3012H20.6471ZM20.92 11.8106C20.92 11.8106 20.9082 11.8106 20.9022 11.8106C20.92 12.1985 20.9438 12.5863 20.9616 12.9802C20.9794 13.3377 21.2226 13.6164 21.5668 13.6164C22.3381 13.6164 23.1035 13.5982 23.8749 13.574C24.8479 13.5437 25.4176 12.2651 25.204 11.6652C25.0259 11.1744 24.6521 10.932 24.2131 10.7744C23.2697 10.423 22.2847 10.4533 21.3057 10.5199C21.0446 10.5381 20.92 10.7138 20.92 10.9926C20.92 11.2653 20.92 11.544 20.92 11.8167V11.8106ZM20.9141 8.61719C20.9141 8.89594 20.9141 9.13226 20.9141 9.37465C20.92 9.68369 21.0565 9.85942 21.3532 9.8776C22.166 9.92608 22.973 9.9079 23.7384 9.60492C23.9698 9.51402 24.2012 9.36859 24.3673 9.18074C24.8835 8.61113 24.6225 7.75066 23.863 7.47191C23.0501 7.17499 22.2016 7.21135 21.3532 7.23559C21.1099 7.24165 20.9675 7.42344 20.9556 7.67794C20.9378 8.00516 20.926 8.33239 20.9082 8.61719H20.9141Z" fill="#141414"/>
<path d="M60.8341 8.92623C61.4156 8.25361 62.1216 7.9991 62.9583 8.03546C63.7949 8.07182 64.4357 8.4657 64.9103 9.06561C65.3494 8.7808 65.741 8.47782 66.1742 8.26573C67.3786 7.67188 68.6009 8.24755 69.1527 8.97471C69.4316 9.34435 69.5028 9.76247 69.5028 10.2048C69.5028 10.9562 69.4909 11.7016 69.4731 12.453C69.4613 12.9135 69.5443 13.3316 69.8766 13.677C69.9122 13.7134 69.9419 13.7618 69.9656 13.8103C70.1495 14.186 70.0843 14.3012 69.6689 14.3012C69.1468 14.3012 68.6187 14.3012 68.0966 14.3072C67.9305 14.3072 67.8237 14.2466 67.7702 14.0891C67.7169 13.9315 67.7228 13.8043 67.8711 13.6831C68.1797 13.4286 68.3458 13.0892 68.3458 12.6832C68.3458 11.7985 68.3577 10.9077 68.3161 10.0291C68.2805 9.32617 67.7821 8.96259 67.2006 8.73232C66.6488 8.52024 66.2335 8.8111 65.8597 9.1868C65.4028 9.64127 65.2723 10.223 65.2604 10.8411C65.2486 11.4895 65.2486 12.1379 65.2604 12.7862C65.2604 13.1074 65.3672 13.3983 65.5749 13.6467C65.6461 13.7316 65.6876 13.8649 65.7054 13.98C65.7351 14.2406 65.6817 14.289 65.4266 14.289C64.9222 14.289 64.4238 14.2951 63.9195 14.2951C63.7949 14.2951 63.6584 14.3254 63.5931 14.1618C63.5338 13.9982 63.4982 13.8406 63.6228 13.6891C63.8305 13.4225 64.0381 13.1559 64.0381 12.7984C64.0381 12.0227 64.0322 11.2531 64.0263 10.4775C64.0263 10.3927 64.0144 10.3078 64.0144 10.223C64.0144 9.5322 63.6287 8.99289 62.9701 8.76262C62.4183 8.56871 61.8309 8.78686 61.4156 9.34435C61.1367 9.72005 60.9765 10.1503 60.9528 10.6169C60.9172 11.3865 60.8994 12.156 60.8934 12.9256C60.8934 13.2225 61.0002 13.4952 61.1901 13.7255C61.2376 13.78 61.2732 13.8527 61.3028 13.9255C61.38 14.1254 61.3147 14.2769 61.1011 14.283C60.5552 14.3012 60.0093 14.3012 59.4635 14.283C59.2736 14.283 59.149 13.9497 59.2795 13.7921C59.6474 13.3559 59.7186 12.8287 59.7245 12.2893C59.7364 11.4471 59.7245 10.6048 59.7305 9.76247C59.7305 9.5019 59.6059 9.31405 59.4279 9.15044C59.1253 8.8717 59.149 8.65355 59.5287 8.52024C59.7661 8.4354 60.0153 8.3748 60.2645 8.33239C60.5671 8.28391 60.7273 8.41116 60.7926 8.71415C60.8044 8.77474 60.8282 8.8414 60.8519 8.93229L60.8341 8.92623Z" fill="#141414"/>
<path d="M1.87971 18.9307C1.87971 18.9307 1.84411 18.9732 1.82037 18.9974C1.38723 19.4216 1.45844 19.973 1.99244 20.2518C2.68072 20.6153 3.31559 20.4335 3.90894 20.0154C5.02442 19.2277 5.92036 18.2339 6.5671 17.0159C7.01804 16.1675 7.43932 15.2949 7.87245 14.4345C7.92586 14.3254 7.96739 14.2345 8.10386 14.3193C8.65566 14.6769 9.19561 15.0465 9.56941 15.6161C10.2458 16.6584 9.96102 18.1793 8.97607 19.0216C8.19879 19.6821 7.30285 20.0518 6.34757 20.3608C5.26175 20.7062 4.16407 20.8577 3.03079 20.8274C2.59765 20.8153 2.18825 20.7123 1.82037 20.4699C1.3457 20.1609 1.19143 19.6337 1.45844 19.2095C1.54744 19.0701 1.70171 18.9732 1.82631 18.858C1.84411 18.8823 1.86191 18.9065 1.88564 18.9307H1.87971Z" fill="#141414"/>
<path d="M73.2053 8.14454C75.0802 8.14454 76.4627 9.2171 76.7772 10.6835C76.9848 11.641 76.6941 12.4893 76.1126 13.2286C74.5581 15.2101 71.6329 14.5254 70.6183 12.8105C69.9834 11.744 70.1555 10.2775 71.0455 9.28375C71.716 8.53236 72.5585 8.15666 73.2112 8.14454H73.2053ZM71.5795 11.6349C71.5795 11.9197 71.6863 12.3984 71.9118 12.8408C72.4398 13.9012 73.8757 14.1739 74.6767 13.3801C75.7388 12.3257 75.7507 10.2836 74.7005 9.22316C73.9232 8.4354 72.8018 8.50812 72.1432 9.40495C71.7041 10.0049 71.5439 10.6896 71.5854 11.641L71.5795 11.6349Z" fill="#141414"/>
<path d="M30.8526 10.6654C30.3008 10.6654 29.743 10.6654 29.1912 10.6654C28.8827 10.6654 28.7877 10.7623 28.7996 11.0835C28.8115 11.3804 28.8233 11.6834 28.8767 11.9742C29.0666 12.9377 29.7074 13.5073 30.6746 13.5679C31.9265 13.6528 32.775 13.0104 33.3683 11.9439C33.4395 11.8167 33.5048 11.6773 33.665 11.744C33.8252 11.8106 33.8489 11.9864 33.7896 12.1197C33.6591 12.4105 33.5285 12.7075 33.3446 12.9559C32.0689 14.6284 29.5472 14.7617 28.1885 13.2347C27.6248 12.6045 27.4883 11.8349 27.5358 11.0168C27.6545 9.0959 29.2683 7.76884 31.1433 8.04152C31.968 8.16272 32.7216 8.44146 33.2615 9.11408C33.4751 9.37465 33.6116 9.71399 33.7243 10.0412C33.8371 10.3563 33.6828 10.5745 33.3624 10.5926C32.5258 10.6411 31.6892 10.6654 30.8526 10.6957C30.8526 10.6896 30.8526 10.6775 30.8526 10.6714V10.6654ZM30.3838 10.0897C30.3838 10.0897 30.3838 10.0836 30.3838 10.0776C30.9297 10.0776 31.4756 10.0776 32.0214 10.0776C32.3359 10.0776 32.4071 9.95032 32.2884 9.64733C32.1045 9.17468 31.79 8.83534 31.3035 8.68385C30.5856 8.45964 29.9388 8.62931 29.387 9.12014C29.2149 9.27164 29.1081 9.5322 29.031 9.76247C28.9598 9.9685 29.0666 10.0836 29.2861 10.0897C29.654 10.0957 30.016 10.0897 30.3838 10.0897Z" fill="#141414"/>
<path d="M46.2082 14.3496C45.5674 14.2345 44.8198 14.1072 44.0722 13.9618C43.9179 13.9315 43.7696 13.8285 43.6331 13.7376C43.5738 13.6952 43.5204 13.5861 43.5204 13.5134C43.5323 13.1619 43.6153 12.8347 43.8467 12.556C43.9951 12.3802 44.1493 12.3802 44.2621 12.5742C44.7961 13.4952 45.6446 13.7073 46.5939 13.6285C46.8965 13.6043 47.205 13.4892 47.4899 13.374C47.6263 13.3195 47.7509 13.1922 47.8399 13.065C48.1307 12.6529 48.0239 12.2469 47.5789 12.0227C47.1872 11.8288 46.7719 11.7743 46.3388 11.7561C45.9768 11.7379 45.603 11.7137 45.253 11.6228C43.8823 11.2592 43.4967 9.77459 44.4875 8.72626C44.9622 8.22937 45.5674 8.05364 46.2142 8.01728C47.0033 7.97486 47.7509 8.21119 48.4985 8.42934C48.6825 8.48388 48.7893 8.62931 48.7537 8.83534C48.7121 9.05955 48.6706 9.28981 48.5875 9.49584C48.5401 9.61098 48.4036 9.76853 48.3205 9.76247C48.1841 9.74429 48.0179 9.63521 47.9467 9.52008C47.5729 8.89594 46.6473 8.48994 45.9709 8.70203C45.6208 8.8111 45.342 9.01713 45.2055 9.38677C45.0453 9.83518 45.2233 10.2897 45.6742 10.4109C46.0955 10.526 46.5405 10.5805 46.9736 10.6229C47.5195 10.6835 48.0239 10.8653 48.5045 11.1077C49.0207 11.3683 49.2461 12.2712 48.9673 12.8771C48.6291 13.6285 48.0001 14.0042 47.2584 14.1981C46.9558 14.2769 46.6414 14.289 46.2023 14.3436L46.2082 14.3496Z" fill="#141414"/>
<path d="M52.6045 14.3678C51.8568 14.2345 51.1033 14.1072 50.3557 13.9558C50.2014 13.9255 50.0531 13.8224 49.9225 13.7315C49.8632 13.6891 49.8157 13.5801 49.8157 13.5013C49.8098 13.1438 49.9166 12.8226 50.1361 12.5439C50.2726 12.3742 50.4328 12.3681 50.5396 12.5499C51.0499 13.4467 51.8746 13.677 52.8002 13.6285C53.1325 13.6104 53.4707 13.4831 53.7852 13.3619C53.9276 13.3074 54.0522 13.1619 54.1412 13.0286C54.4141 12.6045 54.3073 12.2288 53.8623 12.0106C53.4885 11.8228 53.0791 11.7803 52.6638 11.744C52.2188 11.7137 51.7619 11.6713 51.3406 11.544C50.6108 11.3198 50.2133 10.7744 50.2311 10.0776C50.2548 9.30193 50.593 8.69597 51.2754 8.32633C52.017 7.93245 52.8003 7.93245 53.5953 8.10212C53.9691 8.18089 54.337 8.28391 54.7049 8.38692C55.0015 8.47176 55.0727 8.58689 55.0312 8.88988C55.0015 9.08984 54.96 9.29587 54.8769 9.48372C54.8295 9.5928 54.693 9.75035 54.604 9.74429C54.4794 9.73823 54.2895 9.62915 54.248 9.51402C54.1471 9.2171 53.892 9.11408 53.6784 8.96259C53.2453 8.66567 52.7824 8.50812 52.2544 8.67779C51.9043 8.79292 51.6254 8.99895 51.489 9.36253C51.3228 9.80488 51.5068 10.2654 51.9577 10.3866C52.3908 10.5017 52.8359 10.5563 53.2809 10.6048C53.8267 10.6654 54.3251 10.8653 54.8117 11.1017C54.9481 11.1683 55.0787 11.3137 55.1499 11.4531C55.5415 12.1985 55.4228 12.968 54.7345 13.574C54.1768 14.0648 53.5063 14.289 52.6104 14.289C52.6104 14.3133 52.6045 14.3315 52.5985 14.3557L52.6045 14.3678Z" fill="#141414"/>
<path d="M39.1 9.36253C39.1475 10.7017 39.1949 11.8288 39.2365 12.962C39.2483 13.2407 39.3492 13.4649 39.5747 13.6225C39.7645 13.7558 39.7705 13.9436 39.723 14.1315C39.6755 14.3193 39.5035 14.289 39.367 14.289C38.8152 14.2951 38.2575 14.289 37.7057 14.289C37.4505 14.289 37.3556 14.1375 37.4624 13.8952C37.498 13.8103 37.5692 13.7255 37.6404 13.6649C37.8777 13.4649 37.9608 13.2104 37.9786 12.9014C38.0795 11.0471 38.0617 9.1868 37.943 7.33254C37.9311 7.15681 37.8065 6.98714 37.7235 6.82353C37.676 6.73263 37.587 6.65992 37.5454 6.56296C37.4268 6.27816 37.4861 6.15697 37.7769 6.09031C38.032 6.02971 38.2871 5.96306 38.5423 5.93276C38.8805 5.89034 39.1059 6.10849 39.1059 6.45389C39.1059 7.49615 39.1059 8.53236 39.1059 9.36253H39.1Z" fill="#141414"/>
<path d="M36.2342 9.25346C36.2757 10.4109 36.3172 11.6349 36.3528 12.859C36.3647 13.1922 36.4715 13.4528 36.7326 13.677C36.8275 13.7618 36.8512 13.9739 36.8453 14.1254C36.8453 14.3133 36.6614 14.3012 36.5308 14.3012C35.9612 14.3072 35.3916 14.3072 34.822 14.3012C34.5669 14.3012 34.4719 14.1436 34.5847 13.9073C34.6203 13.8285 34.6796 13.7497 34.7449 13.6952C35.0119 13.477 35.0831 13.1862 35.1009 12.8468C35.1899 11.2107 35.1721 9.57462 35.1009 7.94457C35.095 7.78702 35.089 7.6234 35.0831 7.46585C35.0712 7.22347 34.9881 7.01138 34.8279 6.82353C34.7508 6.73263 34.6855 6.62962 34.6499 6.51449C34.5669 6.26604 34.6143 6.18726 34.8635 6.12061C35.089 6.06001 35.3145 5.99336 35.54 5.96306C36.0146 5.89034 36.2342 6.07819 36.2401 6.56902C36.2401 7.44768 36.2401 8.32633 36.2401 9.27164L36.2342 9.25346Z" fill="#141414"/>
<path d="M58.2115 11.1562C58.2115 11.7682 58.2175 12.3802 58.2115 12.9923C58.2115 13.2347 58.2709 13.4225 58.4607 13.5679C58.5497 13.6407 58.6447 13.7134 58.6981 13.8103C58.7455 13.9012 58.7811 14.0406 58.7455 14.1254C58.7099 14.2103 58.5794 14.289 58.4845 14.2951C57.9089 14.3072 57.3334 14.3072 56.7519 14.2951C56.651 14.2951 56.5086 14.2103 56.473 14.1254C56.4374 14.0345 56.4612 13.8406 56.5324 13.7982C57.0367 13.4649 56.9952 12.9317 57.013 12.4408C57.0426 11.4228 57.0664 10.4048 57.0367 9.39283C57.0308 9.15044 56.8231 8.90199 56.6688 8.68991C56.473 8.42328 56.4849 8.29603 56.7934 8.19907C57.1079 8.09606 57.4224 8.00516 57.7428 7.93245C58.0454 7.86579 58.1878 7.98093 58.1878 8.29603C58.1878 9.25346 58.1878 10.2048 58.1878 11.1623C58.1997 11.1623 58.2115 11.1623 58.2234 11.1623L58.2115 11.1562Z" fill="#141414"/>
<path d="M42.3871 10.7017C42.3871 11.4289 42.3931 12.156 42.3871 12.8832C42.3871 13.1862 42.4583 13.4346 42.7075 13.6225C42.8618 13.7376 43.0398 13.877 42.9508 14.1133C42.8618 14.3436 42.6541 14.3012 42.4642 14.3012C41.9896 14.3012 41.5208 14.3133 41.0462 14.2951C40.9156 14.2951 40.7258 14.2345 40.6664 14.1315C40.5596 13.9679 40.6724 13.7982 40.8207 13.677C41.0462 13.5013 41.153 13.2831 41.1589 12.9923C41.1767 11.7622 41.2182 10.532 41.2064 9.29587C41.2064 9.08984 40.9987 8.86564 40.8504 8.67779C40.6427 8.41116 40.6605 8.28391 40.975 8.18089C41.2657 8.08394 41.5624 8.00516 41.859 7.92639C42.221 7.83549 42.3693 7.94457 42.3752 8.32633C42.3871 9.11408 42.3752 9.90184 42.3752 10.6896C42.3752 10.6896 42.3812 10.6896 42.3871 10.6896V10.7017Z" fill="#141414"/>
<path d="M68.3458 20.1669H67.6872V16.7856C67.8889 16.7856 68.0907 16.7735 68.2865 16.7917C68.3517 16.7977 68.417 16.8947 68.4585 16.9674C68.7433 17.5188 69.0281 18.0763 69.3248 18.6641C69.3723 18.5853 69.4079 18.5369 69.4375 18.4823C69.7045 17.9673 69.9715 17.4582 70.2267 16.9432C70.286 16.828 70.3513 16.7735 70.4818 16.7796C70.642 16.7917 70.8082 16.7796 70.9862 16.7796V20.1548H70.3394V18.1066C70.3394 18.1066 70.3038 18.1006 70.286 18.0945C70.0665 18.5247 69.841 18.9489 69.6333 19.3852C69.5562 19.5428 69.4613 19.6397 69.2892 19.5912C69.2121 19.567 69.1112 19.5125 69.0756 19.4458C68.8383 19.0035 68.6128 18.555 68.3458 18.1127V20.1669Z" fill="#141414"/>
<path d="M64.4001 18.4036C64.6137 18.5975 64.8154 18.7793 65.0468 18.9853C65.0943 18.7853 65.1417 18.5732 65.1951 18.3369H65.6817C65.6936 18.6702 65.6224 18.9853 65.4799 19.2822C65.4206 19.4034 65.4206 19.4822 65.5215 19.5791C65.7054 19.7549 65.8716 19.9548 66.0555 20.1427C65.6461 20.2699 65.2663 20.1912 65.029 19.9488C64.7679 20.0397 64.5247 20.1609 64.2695 20.2093C63.5457 20.3487 62.9108 19.8397 62.9701 19.155C62.9879 18.9489 63.1185 18.749 63.2253 18.5611C63.2846 18.452 63.3914 18.3672 63.4804 18.2642C63.0947 17.6703 63.0829 17.2462 63.4626 16.9492C63.8542 16.6462 64.5306 16.7008 64.8213 17.0583C65.118 17.4219 65.0053 17.8218 64.4119 18.4036H64.4001ZM64.6315 19.5125C64.3823 19.2458 64.139 18.9853 63.9017 18.7308C63.5694 18.961 63.4804 19.2216 63.6406 19.464C63.8186 19.7427 64.2636 19.773 64.6315 19.5125ZM64.0085 17.9491C64.0975 17.8824 64.1687 17.8279 64.2399 17.7673C64.3763 17.6461 64.4297 17.5067 64.3111 17.3492C64.2161 17.2159 63.9907 17.2037 63.8661 17.3128C63.7237 17.4401 63.7177 17.5855 63.8305 17.737C63.8779 17.8036 63.9373 17.8642 64.0085 17.943V17.9491Z" fill="#141414"/>
<path d="M74.6174 20.1306V16.7614C75.187 16.7917 75.7507 16.7674 76.3025 16.8583C76.9314 16.9614 77.3824 17.5249 77.4298 18.1793C77.4476 18.4581 77.4476 18.749 77.3824 19.0216C77.24 19.6276 76.8424 20.0336 76.2432 20.1184C75.7151 20.1912 75.1752 20.1306 74.6174 20.1306ZM75.282 19.5791C75.7922 19.5912 76.3144 19.67 76.617 19.1368C76.8721 18.6884 76.8721 18.2096 76.5873 17.7733C76.2669 17.2825 75.7626 17.3855 75.282 17.3855V19.5791Z" fill="#141414"/>
<path d="M47.2407 20.1669H46.6058V16.7977C47.1457 16.7977 47.6738 16.7674 48.2019 16.8099C48.6409 16.8462 48.991 17.228 49.0859 17.6703C49.1868 18.143 49.0207 18.5732 48.6291 18.8459C48.5994 18.8641 48.5697 18.8944 48.5401 18.9186C48.7893 19.3246 49.0325 19.7246 49.3055 20.173C49.0444 20.173 48.8249 20.179 48.6113 20.1669C48.5638 20.1669 48.5104 20.0881 48.4748 20.0336C48.3146 19.7852 48.1485 19.5367 48.012 19.2761C47.9111 19.0883 47.7806 19.0156 47.5848 19.0398C47.4839 19.0519 47.3771 19.0398 47.2407 19.0398V20.1669ZM47.2584 18.452C47.5136 18.452 47.745 18.452 47.9764 18.452C48.2612 18.452 48.4333 18.2702 48.4511 17.9612C48.4689 17.6703 48.2849 17.4037 48.0239 17.3855C47.7747 17.3673 47.5195 17.3855 47.2584 17.3855V18.452Z" fill="#141414"/>
<path d="M56.6629 19.0459V20.1609H56.0399V16.7856C56.2535 16.7856 56.473 16.7856 56.6985 16.7856C56.9358 16.7856 57.1791 16.7856 57.4164 16.7856C57.9327 16.7856 58.3421 17.1007 58.4904 17.5976C58.6328 18.0824 58.4607 18.5611 58.0335 18.858C58.0098 18.8762 57.9861 18.8944 57.9564 18.9186C58.2056 19.3246 58.4489 19.7246 58.7218 20.173C58.4667 20.173 58.2471 20.179 58.0276 20.1669C57.9801 20.1669 57.9267 20.0881 57.8911 20.0336C57.7309 19.7791 57.5588 19.5246 57.4164 19.2519C57.3215 19.0822 57.2088 19.0095 57.0189 19.0338C56.9121 19.0459 56.7994 19.0338 56.657 19.0338L56.6629 19.0459ZM56.6748 18.452C56.918 18.452 57.1494 18.452 57.3749 18.452C57.6656 18.452 57.8318 18.2945 57.8615 17.9976C57.8911 17.7128 57.7428 17.4279 57.4877 17.3976C57.2206 17.3673 56.9418 17.3916 56.6688 17.3916V18.452H56.6748Z" fill="#141414"/>
<path d="M52.4264 17.5188C52.2603 17.6461 52.106 17.7612 52.017 17.8279C51.7678 17.6643 51.572 17.4764 51.3406 17.3976C50.9728 17.2704 50.6108 17.4764 50.4091 17.8582C50.1599 18.3308 50.2311 18.9732 50.5752 19.3307C50.949 19.7306 51.5602 19.6882 51.9458 19.1913C51.9874 19.1368 51.9814 19.0398 51.9992 18.9307H51.3525V18.4399H52.5332V20.1609H52.0111C51.9992 20.07 51.9874 19.973 51.9696 19.8397C51.578 20.1912 51.1389 20.276 50.6702 20.1063C50.2548 19.9548 49.9641 19.6518 49.7742 19.2519C49.3648 18.3733 49.6793 17.3431 50.4922 16.925C51.2101 16.5554 52.0586 16.8038 52.4324 17.5128L52.4264 17.5188Z" fill="#141414"/>
<path d="M71.7516 16.7977H73.9944V17.3734H72.4102V18.1793H73.7749V18.7247H72.4102V19.5852H74.03V20.173H71.7456V16.8038L71.7516 16.7977Z" fill="#141414"/>
<path d="M55.3872 16.8038V17.3734H53.8149V18.1672H55.1558V18.7187H53.8149V19.5791H55.4228V20.1609H53.1444V16.8038H55.3872Z" fill="#141414"/>
<path d="M82.8708 17.131C82.758 17.3431 82.6631 17.5128 82.5682 17.6946C82.2537 17.4825 81.9333 17.3431 81.5654 17.3795C81.3756 17.3976 81.2094 17.4522 81.1679 17.6764C81.1264 17.9067 81.2806 18.0097 81.4586 18.0703C81.7375 18.1612 82.0223 18.2278 82.2952 18.3308C82.8114 18.5187 83.0013 18.8156 82.9598 19.3307C82.9301 19.7367 82.6334 20.0578 82.1825 20.1669C81.607 20.3063 80.8594 20.1487 80.3432 19.7609C80.4322 19.5791 80.5271 19.3973 80.622 19.1974C80.9899 19.4337 81.3578 19.6215 81.785 19.5973C81.874 19.5973 81.9748 19.5973 82.046 19.5488C82.1291 19.4943 82.23 19.3913 82.2359 19.3064C82.2478 19.2155 82.1825 19.0701 82.1054 19.0216C81.957 18.9247 81.779 18.8701 81.6129 18.8156C81.423 18.749 81.2272 18.7005 81.0374 18.6278C80.7526 18.5187 80.5271 18.343 80.4855 17.9976C80.4381 17.6097 80.5271 17.2643 80.8534 17.0219C81.2866 16.7068 81.7672 16.719 82.2478 16.8583C82.4436 16.9129 82.6275 17.028 82.853 17.125L82.8708 17.131Z" fill="#141414"/>
<path d="M42.399 17.1613C42.2981 17.3431 42.2091 17.5128 42.1142 17.6885C41.7938 17.4704 41.4674 17.331 41.0936 17.3734C40.9097 17.3916 40.7554 17.4643 40.7198 17.6703C40.6842 17.8885 40.8207 17.9976 40.9928 18.0582C41.2954 18.1612 41.6098 18.2339 41.9124 18.349C42.4286 18.549 42.6245 18.9671 42.4761 19.5064C42.3812 19.8397 42.1557 20.0397 41.8412 20.1306C41.147 20.3245 40.5122 20.1669 39.8892 19.7791C39.99 19.5791 40.079 19.3973 40.1799 19.1974C40.53 19.4276 40.8741 19.6034 41.2776 19.5973C41.3606 19.5973 41.4556 19.6155 41.5208 19.5791C41.6276 19.5125 41.7463 19.4276 41.7938 19.3246C41.8531 19.1852 41.7582 19.0519 41.6276 18.9913C41.4734 18.9186 41.3072 18.8641 41.147 18.8096C40.969 18.749 40.791 18.7005 40.613 18.6338C40.2689 18.5066 40.0375 18.2884 40.0316 17.8824C40.0256 17.4522 40.1858 17.125 40.5656 16.925C41.0818 16.6523 41.8234 16.7432 42.399 17.1613Z" fill="#141414"/>
<path d="M30.811 17.1492C30.7102 17.3371 30.6212 17.5067 30.544 17.6522C30.283 17.5552 30.0337 17.4704 29.7786 17.3795C29.7371 17.3673 29.6896 17.3734 29.6421 17.3673C29.3217 17.3673 29.1437 17.4643 29.1141 17.6764C29.0844 17.8764 29.209 18.0097 29.5235 18.1066C29.7608 18.1793 30.0041 18.2339 30.2355 18.3187C30.7636 18.5066 30.9416 18.7853 30.9119 19.3367C30.8882 19.7427 30.6034 20.0639 30.1346 20.1609C29.4819 20.3002 28.8767 20.1487 28.3012 19.773C28.4021 19.5791 28.4911 19.3913 28.5919 19.1974C28.9479 19.4337 29.3039 19.6094 29.7193 19.5973C29.8083 19.5973 29.9151 19.6034 29.9803 19.5609C30.0753 19.4943 30.194 19.3973 30.2118 19.2943C30.2296 19.2034 30.1406 19.058 30.0575 19.0035C29.9151 18.9126 29.743 18.8641 29.5828 18.8096C29.4107 18.749 29.2327 18.7187 29.0666 18.652C28.6157 18.4763 28.4495 18.246 28.4436 17.8339C28.4436 17.3795 28.6631 17.0341 29.0785 16.8826C29.6896 16.6584 30.2533 16.7977 30.811 17.1553V17.1492Z" fill="#141414"/>
<path d="M43.0339 16.7977H43.6628C43.6628 16.8947 43.6628 16.9856 43.6628 17.0704C43.6747 17.6582 43.6628 18.246 43.6984 18.8338C43.7162 19.161 43.8705 19.4398 44.2027 19.5488C44.4816 19.6397 44.7545 19.6094 44.9741 19.3852C45.1818 19.1731 45.2411 18.8944 45.2411 18.6035C45.2411 18.0885 45.2411 17.5794 45.2411 17.0644C45.2411 16.9795 45.2411 16.9008 45.2411 16.7977H45.8997C45.8997 17.1068 45.8997 17.4219 45.8997 17.7309C45.8938 18.143 45.9116 18.5611 45.8522 18.9671C45.7336 19.773 45.2233 20.1972 44.446 20.1912C43.6628 20.1912 43.1288 19.7549 43.0457 18.9368C42.9745 18.2339 43.0339 17.5188 43.0339 16.7917V16.7977Z" fill="#141414"/>
<path d="M20.2911 19.0459V20.1609H19.6443V16.8038C20.1546 16.8038 20.6708 16.7674 21.1692 16.8159C21.727 16.8705 22.1245 17.434 22.0889 18.0157C22.0533 18.6096 21.6083 19.0398 21.009 19.0519C20.7776 19.0519 20.5462 19.0519 20.2911 19.0519V19.0459ZM20.303 17.3795V18.452C20.5284 18.452 20.742 18.452 20.9556 18.452C21.2464 18.452 21.4066 18.2763 21.4184 17.9612C21.4303 17.634 21.2582 17.4037 20.9734 17.3855C20.7598 17.3734 20.5403 17.3855 20.303 17.3855V17.3795Z" fill="#141414"/>
<path d="M84.1643 19.0459V20.1669H83.5294V16.7977C84.0397 16.7977 84.5499 16.7614 85.0483 16.8099C85.5942 16.8644 86.0155 17.4461 85.968 17.9854C85.9146 18.6156 85.4934 19.0338 84.8881 19.0459C84.6567 19.0459 84.4253 19.0459 84.1583 19.0459H84.1643ZM84.188 18.452C84.4135 18.452 84.6271 18.452 84.8466 18.452C85.1314 18.452 85.2798 18.2884 85.3035 17.9733C85.3213 17.6703 85.173 17.4219 84.9119 17.3916C84.6745 17.3673 84.4372 17.3916 84.188 17.3916V18.4581V18.452Z" fill="#141414"/>
<path d="M89 20.1669C88.3355 20.2154 88.3236 20.2215 88.1159 19.6034C88.0507 19.4034 87.9676 19.3064 87.754 19.3428C87.659 19.361 87.5582 19.3428 87.4632 19.3428C86.8758 19.3428 86.864 19.3428 86.68 19.9003C86.6088 20.1184 86.5139 20.2154 86.2884 20.1851C86.1638 20.1669 86.0392 20.1851 85.879 20.1851C86.057 19.7246 86.2232 19.2943 86.3893 18.8641C86.6385 18.2278 86.8877 17.5916 87.125 16.9432C87.1962 16.7432 87.3386 16.7977 87.4692 16.7917C87.5878 16.7917 87.7124 16.7553 87.7777 16.9311C88.1693 17.9794 88.5787 19.0216 88.9763 20.07C88.9881 20.0942 88.9881 20.1245 89 20.173V20.1669ZM87.8845 18.8398C87.7362 18.4096 87.5997 18.0036 87.4454 17.5491C87.2912 18.0036 87.1488 18.4096 86.9945 18.8398H87.8845Z" fill="#141414"/>
<path d="M28.1707 20.179C27.963 20.179 27.7791 20.1851 27.5951 20.179C27.5417 20.179 27.4942 20.1184 27.4468 20.076C27.429 20.0578 27.423 20.0215 27.4112 19.9912C27.3281 19.7791 27.2984 19.4882 27.1442 19.3792C26.9899 19.2701 26.711 19.3428 26.4856 19.3428C26.0406 19.3428 26.0406 19.3428 25.8804 19.767C25.7815 20.0417 25.5857 20.179 25.293 20.179C25.2218 20.179 25.1506 20.179 25.0437 20.179C25.0912 20.0578 25.1209 19.9669 25.1565 19.8761C25.5303 18.9126 25.91 17.9491 26.266 16.9735C26.355 16.725 26.5212 16.8099 26.6754 16.7856C26.8297 16.7614 26.895 16.8341 26.9484 16.9795C27.3222 17.9794 27.7079 18.9732 28.0935 19.9669C28.1173 20.0275 28.1351 20.0942 28.1647 20.179H28.1707ZM26.6102 17.5431C26.45 18.0036 26.3076 18.4157 26.1592 18.8459H27.0492C26.9068 18.4157 26.7644 18.0036 26.6102 17.5431Z" fill="#141414"/>
<path d="M38.4177 17.5249C38.2456 17.6461 38.0913 17.7552 37.9905 17.8279C37.7709 17.6764 37.5989 17.5067 37.3971 17.4279C37.0114 17.2765 36.6139 17.4582 36.4122 17.84C36.2223 18.2036 36.1986 18.5853 36.341 18.9671C36.4656 19.3004 36.6851 19.5428 37.053 19.5912C37.4446 19.6458 37.7353 19.4701 37.9371 19.1004C38.1151 19.2034 38.2871 19.3004 38.4711 19.4095C38.2456 19.9003 37.8481 20.1124 37.3734 20.1851C36.3706 20.3426 35.6764 19.4943 35.5993 18.6823C35.5103 17.7612 36.0146 17.0098 36.8097 16.822C37.4743 16.6644 38.0973 16.9311 38.4177 17.531V17.5249Z" fill="#141414"/>
<path d="M60.5196 20.1669H59.8788C59.8788 19.8579 59.8907 19.5428 59.8788 19.2337C59.8729 19.0822 59.8313 18.9186 59.7601 18.7793C59.4516 18.1854 59.1253 17.6037 58.8049 17.0159C58.7693 16.9492 58.7396 16.8826 58.6862 16.7856C58.9176 16.7856 59.1193 16.7735 59.3151 16.7917C59.3745 16.7917 59.4457 16.8826 59.4753 16.9492C59.7127 17.4158 59.9441 17.8824 60.1992 18.3914C60.395 18.0157 60.5671 17.6703 60.7451 17.331C60.751 17.3189 60.757 17.3007 60.7629 17.2886C60.9488 16.9169 61.2633 16.7553 61.7063 16.8038C61.6826 16.8644 61.6648 16.9189 61.6351 16.9674C61.3147 17.5552 61.0002 18.143 60.668 18.7247C60.5612 18.9126 60.5078 19.0944 60.5137 19.3064C60.5256 19.5791 60.5137 19.8579 60.5137 20.1609L60.5196 20.1669Z" fill="#141414"/>
<path d="M31.167 17.3916V16.8038H33.9083V17.3734H32.8877V20.1669H32.235V17.3916H31.167Z" fill="#141414"/>
<path d="M23.2222 19.5852H24.9013V20.1669H22.5933V16.8038H23.2222V19.5852Z" fill="#141414"/>
<path d="M34.3948 16.8099H35.0297V20.1669H34.3948V16.8099Z" fill="#141414"/>
<path d="M78.6521 16.8099V20.1609H78.041V16.8099H78.6521Z" fill="#141414"/>
<path d="M60.0806 25.7842C59.4397 26.2387 58.9769 26.2326 58.615 25.7721C58.2531 25.3116 58.2946 24.6147 58.704 24.2269C59.1134 23.8391 59.5584 23.8936 60.0806 24.3844C60.2052 24.2996 59.9856 24.0269 60.2942 24.0087C60.2942 24.1178 60.2942 24.2148 60.2942 24.3117C60.2942 24.9298 60.306 25.554 60.2882 26.172C60.2823 26.3478 60.2052 26.5538 60.0984 26.6871C59.7483 27.1174 58.8761 27.0871 58.526 26.6508C58.4627 26.574 58.4726 26.5013 58.5557 26.4326C58.9413 26.8144 59.3982 26.9174 59.772 26.7174C60.0628 26.5599 60.1636 26.2569 60.0865 25.7782L60.0806 25.7842ZM60.1043 25.0752C60.1043 24.5117 59.8195 24.1724 59.3507 24.1724C58.9117 24.1724 58.5794 24.5541 58.5735 25.0631C58.5735 25.5479 58.9473 25.966 59.3804 25.96C59.8254 25.96 60.0984 25.6146 60.0984 25.0752H60.1043Z" fill="#141414"/>
<path d="M56.829 6.61144C56.829 6.19938 57.1316 5.89034 57.5351 5.8964C57.9327 5.8964 58.2649 6.22968 58.2649 6.62962C58.2649 7.0235 57.9089 7.3689 57.5233 7.35678C57.1316 7.34466 56.829 7.0235 56.835 6.61144H56.829Z" fill="#141414"/>
<path d="M41.7344 5.8964C42.1498 5.8964 42.4524 6.21756 42.4464 6.64174C42.4464 7.03562 42.1023 7.3689 41.7226 7.36284C41.3369 7.35678 41.0046 6.99926 41.0106 6.6175C41.0165 6.21756 41.3428 5.8964 41.7344 5.8964Z" fill="#141414"/>
<path d="M28.8293 24.3481C29.4107 23.8694 29.9151 23.8694 30.2948 24.3117C30.6746 24.7541 30.6449 25.5115 30.2355 25.8994C29.8379 26.2751 29.3336 26.2145 28.8352 25.6994V26.9113C28.6987 26.9659 28.6275 26.9598 28.6275 26.7962C28.6275 25.9175 28.6275 25.0328 28.6275 24.1542C28.6275 24.1057 28.6869 24.0572 28.7225 24.0087C28.7581 24.0572 28.7996 24.0996 28.8174 24.1542C28.8352 24.2027 28.8174 24.2572 28.8174 24.3481H28.8293ZM29.565 24.1724C29.1497 24.1724 28.8411 24.4814 28.8352 24.8995C28.8352 25.5843 29.1081 25.966 29.5887 25.966C30.0159 25.966 30.3601 25.554 30.3542 25.0571C30.3542 24.5784 29.9863 24.1724 29.5591 24.1724H29.565Z" fill="#141414"/>
<path d="M48.2137 25.7539C47.6619 26.2448 47.1694 26.2629 46.766 25.8327C46.3684 25.4146 46.3684 24.6995 46.766 24.2693C47.1457 23.8512 47.6085 23.8815 48.2019 24.3905V23.1967C48.3858 23.1301 48.4155 23.2089 48.4155 23.3543C48.4155 24.1178 48.4155 24.8874 48.4155 25.6509C48.4155 25.7297 48.4451 25.8145 48.4511 25.8933C48.4511 25.96 48.4511 26.0327 48.4511 26.0993C48.3858 26.0509 48.3027 26.0145 48.2553 25.9539C48.2256 25.9175 48.2375 25.8388 48.2315 25.7479L48.2137 25.7539ZM48.1959 25.0752C48.1959 24.5178 47.9111 24.1724 47.4483 24.1663C47.0211 24.1663 46.6651 24.5662 46.6651 25.0571C46.6651 25.5297 47.0567 25.96 47.4839 25.9539C47.9349 25.9478 48.1959 25.6206 48.1959 25.0692V25.0752Z" fill="#141414"/>
<path d="M38.0735 25.1419C38.0795 25.5055 38.2931 25.8085 38.5957 25.9297C38.8983 26.0448 39.2246 25.9539 39.456 25.6994C39.5035 25.6449 39.5865 25.6206 39.6696 25.6085C39.4441 26.1902 38.6669 26.3235 38.2041 25.8872C37.8659 25.5661 37.7709 25.1601 37.9015 24.7117C38.032 24.2754 38.3287 24.0269 38.7796 23.9784C39.3195 23.9178 39.8951 24.4632 39.8535 25.0207C39.8535 25.0631 39.7467 25.1358 39.6933 25.1358C39.2424 25.148 38.7915 25.1358 38.3465 25.1358C38.2634 25.1358 38.1803 25.1358 38.0854 25.1358L38.0735 25.1419ZM39.634 24.9541C39.5806 24.4511 39.2305 24.1178 38.7974 24.1481C38.3761 24.1784 38.0557 24.5299 38.0795 24.9541H39.634Z" fill="#141414"/>
<path d="M49.1156 25.1419C49.1156 25.4994 49.3351 25.8145 49.6377 25.9297C49.9463 26.0448 50.2726 25.9478 50.51 25.6873C50.5515 25.6388 50.6346 25.6206 50.7414 25.5721C50.6168 26.0206 50.0353 26.2569 49.5903 26.0993C49.0919 25.9297 48.7893 25.3601 48.9139 24.8086C49.0385 24.2633 49.5072 23.9118 50.0115 23.9906C50.5634 24.0754 50.9194 24.542 50.8778 25.1419H49.1156ZM49.1037 24.948H50.6702C50.6524 24.4996 50.3379 24.1663 49.9225 24.1481C49.4953 24.1239 49.169 24.445 49.1097 24.948H49.1037Z" fill="#141414"/>
<path d="M32.3418 25.8206C32.0333 26.0812 31.7188 26.2145 31.345 26.1114C31.0602 26.0327 30.8822 25.8145 30.8704 25.5418C30.8585 25.2631 30.989 25.0752 31.2798 24.9541C31.5883 24.8268 31.8968 24.8632 32.2054 24.9359C32.2469 24.948 32.2884 24.9541 32.33 24.9662C32.419 24.342 32.0096 23.9966 31.4459 24.2027C31.3569 24.233 31.2738 24.2996 31.1848 24.3299C31.1374 24.3481 31.0721 24.3178 31.0187 24.2875C31.3035 24.0572 31.6002 23.936 31.9443 24.0027C32.2647 24.0633 32.4902 24.2754 32.5258 24.6087C32.5555 24.8813 32.5495 25.1601 32.5614 25.4328C32.5732 25.657 32.591 25.8751 32.6029 26.1054C32.4012 26.1357 32.3715 25.9842 32.3359 25.8266L32.3418 25.8206ZM31.7248 25.0086C31.6298 25.0268 31.5052 25.0449 31.3866 25.0813C31.1967 25.148 31.0543 25.2752 31.0662 25.4994C31.078 25.7176 31.1908 25.8691 31.3984 25.9418C31.6832 26.0387 32.0867 25.9175 32.2706 25.6752C32.4842 25.3843 32.3715 25.0995 32.0274 25.051C31.9384 25.0389 31.8494 25.0268 31.7248 25.0146V25.0086Z" fill="#141414"/>
<path d="M65.7351 25.0631C65.7351 25.657 65.2901 26.1417 64.7383 26.1417C64.1746 26.1417 63.7237 25.657 63.7296 25.0571C63.7296 24.4693 64.1924 23.9724 64.7264 23.9663C65.2782 23.9663 65.7351 24.4632 65.7351 25.0631ZM65.5155 25.0571C65.5155 24.5662 65.1714 24.1724 64.7323 24.1724C64.2933 24.1724 63.9313 24.5723 63.9313 25.0692C63.9313 25.5479 64.2933 25.96 64.7205 25.96C65.1595 25.96 65.5155 25.554 65.5155 25.0571Z" fill="#141414"/>
<path d="M21.6024 25.0571C21.6024 24.4693 22.0592 23.9724 22.5992 23.9724C23.1451 23.9724 23.6138 24.4753 23.6079 25.0692C23.6079 25.663 23.1569 26.1417 22.6051 26.1478C22.0414 26.1478 21.5964 25.6691 21.5964 25.0571H21.6024ZM23.4002 25.0692C23.4002 24.5723 23.0442 24.1663 22.5992 24.1724C22.166 24.1724 21.8219 24.5602 21.816 25.0571C21.81 25.5418 22.1542 25.9478 22.5873 25.96C23.0205 25.9721 23.4002 25.56 23.4002 25.0692Z" fill="#141414"/>
<path d="M51.6136 24.439V26.0751C51.4534 26.1478 51.4178 26.0872 51.4178 25.9478C51.4178 25.5358 51.4178 25.1237 51.4178 24.7117C51.4178 24.6268 51.4178 24.5481 51.4178 24.4935C51.2991 24.4329 51.2101 24.3844 51.1211 24.342C51.2101 24.3057 51.2932 24.2633 51.4059 24.2148C51.4178 23.833 51.394 23.3907 51.8509 23.1846C52.1238 23.0634 52.3909 23.1422 52.6757 23.3179C52.5985 23.3604 52.5392 23.421 52.5095 23.4088C52.2603 23.3119 52.017 23.2392 51.7975 23.4573C51.5839 23.6694 51.6017 23.9542 51.6136 24.2572H52.6104C52.6104 24.4572 52.6104 24.6268 52.6104 24.7965C52.6104 25.1783 52.6104 25.56 52.6104 25.9418C52.6104 26.0024 52.5451 26.069 52.5095 26.1296C52.4799 26.1175 52.4561 26.1054 52.4264 26.0993V24.445H51.6136V24.439Z" fill="#141414"/>
<path d="M57.7369 26.0751C57.7369 25.7115 57.7369 25.3419 57.7369 24.9783C57.7369 24.851 57.7369 24.7177 57.7072 24.5905C57.6301 24.2148 57.4046 24.0875 57.0426 24.2027C56.6866 24.3178 56.4671 24.6268 56.4671 25.0086C56.4671 25.3601 56.4671 25.7115 56.4671 26.063C56.3069 26.1478 56.2594 26.0933 56.2594 25.9357C56.2594 25.354 56.2594 24.7723 56.2654 24.1905C56.2654 24.1299 56.3366 24.0693 56.3722 24.0087C56.4018 24.0693 56.4434 24.1239 56.4612 24.1845C56.479 24.2451 56.473 24.3178 56.473 24.3299C56.7163 24.2148 56.9536 24.0572 57.2147 23.9906C57.5826 23.8936 57.8555 24.0754 57.8971 24.4572C57.9505 24.9662 57.9386 25.4812 57.9445 25.9903C57.9445 26.0327 57.8615 26.0812 57.814 26.1236C57.7903 26.1054 57.7665 26.0872 57.7428 26.069L57.7369 26.0751Z" fill="#141414"/>
<path d="M25.5659 25.76C25.3226 25.8872 25.0912 26.0509 24.8361 26.1236C24.4563 26.2326 24.1241 26.0084 24.0825 25.6085C24.0291 25.1177 24.041 24.6147 24.0351 24.1239C24.0351 24.0875 24.1003 24.0512 24.1359 24.0148C24.1715 24.0572 24.219 24.0875 24.2309 24.136C24.2487 24.2027 24.2309 24.2754 24.2309 24.342C24.2309 24.6874 24.2249 25.0328 24.2427 25.3722C24.2724 25.8994 24.6521 26.1114 25.1031 25.8509C25.382 25.6933 25.5481 25.457 25.5362 25.1055C25.5244 24.7904 25.5362 24.4753 25.5362 24.1663C25.5362 24.033 25.5837 23.9906 25.7142 24.0269C25.7854 24.7177 25.6371 25.4085 25.821 26.0993C25.4828 26.1236 25.5837 25.8751 25.56 25.76H25.5659Z" fill="#141414"/>
<path d="M43.5263 24.3602C43.7637 24.239 43.9832 24.0693 44.2324 24.0027C44.6596 23.8876 44.9444 24.0936 44.986 24.542C45.0275 25.0207 45.0097 25.5055 45.0097 25.9903C45.0097 26.0387 44.9326 26.0812 44.891 26.1296C44.8673 26.1175 44.8495 26.1054 44.8257 26.0933C44.8257 25.76 44.8257 25.4206 44.8257 25.0874C44.8257 24.9177 44.8139 24.748 44.7842 24.5844C44.7308 24.2633 44.5647 24.1421 44.2502 24.1784C43.8823 24.2208 43.556 24.5784 43.556 24.9541C43.556 25.2813 43.556 25.6146 43.556 25.9418C43.556 26.0933 43.4967 26.1296 43.3483 26.0812C43.3483 25.4328 43.3483 24.7844 43.3483 24.136C43.3483 24.0936 43.4077 24.0572 43.4373 24.0148C43.467 24.0572 43.5145 24.0936 43.5263 24.1421C43.5382 24.2269 43.5263 24.3178 43.5263 24.3602Z" fill="#141414"/>
<path d="M67.8949 26.1054C67.6279 26.1236 67.7109 25.8751 67.6872 25.76C67.4677 25.8812 67.26 26.0448 67.0167 26.1175C66.5836 26.2508 66.2394 26.0145 66.1979 25.56C66.1564 25.0874 66.1682 24.6147 66.1623 24.1421C66.1623 24.0996 66.2216 24.0633 66.2572 24.0209C66.2928 24.0633 66.3403 24.1057 66.364 24.1542C66.3818 24.1905 66.364 24.2451 66.364 24.2875C66.364 24.6147 66.364 24.948 66.364 25.2752C66.37 25.7236 66.5598 25.9721 66.8862 25.966C67.2719 25.96 67.6635 25.5903 67.6694 25.2207C67.6694 24.8753 67.6694 24.5299 67.6694 24.1905C67.6694 24.136 67.7287 24.0754 67.7584 24.0209C67.794 24.0754 67.8415 24.1239 67.8533 24.1845C67.8711 24.2754 67.8533 24.3663 67.8533 24.4572C67.8593 24.9965 67.8711 25.5418 67.883 26.1054H67.8949Z" fill="#141414"/>
<path d="M53.3461 26.1236C53.3046 26.0751 53.2275 26.0266 53.2275 25.9781C53.2215 25.3661 53.2215 24.7541 53.2275 24.1421C53.2275 24.0996 53.2868 24.0572 53.3165 24.0148C53.3461 24.0572 53.3995 24.0936 53.4055 24.136C53.4173 24.2208 53.4055 24.3117 53.4055 24.4511C53.625 24.1966 53.8445 24.0269 54.1471 23.9845C54.5387 23.93 54.8057 24.0815 54.8414 24.4753C54.8829 25.0025 54.8532 25.5418 54.8532 26.0933C54.7227 26.1478 54.6871 26.0751 54.6871 25.9236C54.6871 25.5358 54.6871 25.1419 54.6811 24.7541C54.6811 24.5359 54.6455 24.3117 54.4201 24.2087C54.1946 24.1118 53.9751 24.1724 53.7852 24.3117C53.5479 24.4875 53.4055 24.7056 53.4114 25.0268C53.4233 25.3782 53.4114 25.7297 53.4114 26.0812C53.3877 26.0933 53.3699 26.1115 53.3461 26.1236Z" fill="#141414"/>
<path d="M61.914 26.9719C61.9792 26.8992 62.0208 26.8447 62.0623 26.8083C62.1276 26.7538 62.2166 26.7174 62.2581 26.6508C62.4361 26.3357 62.5192 26.0387 62.3115 25.6751C62.0564 25.2207 61.8784 24.7177 61.6707 24.239C61.647 24.1784 61.6232 24.1178 61.5995 24.0512C61.7538 23.9663 61.8131 24.0512 61.8606 24.1724C62.0682 24.6632 62.2759 25.154 62.4895 25.6449C62.5192 25.7115 62.5489 25.7782 62.6023 25.8933C62.8396 25.2995 63.0651 24.742 63.2846 24.1905C63.3261 24.0815 63.3677 23.9663 63.5397 24.0572C63.3677 24.4875 63.1897 24.9177 63.0176 25.3479C62.8337 25.8085 62.6379 26.2629 62.4598 26.7235C62.3708 26.9537 62.2166 27.0386 61.914 26.984V26.9719Z" fill="#141414"/>
<path d="M19.4248 23.221C19.5019 23.2755 19.6087 23.3179 19.6562 23.3907C19.9113 23.7845 20.1546 24.1905 20.4038 24.5905C20.4454 24.6632 20.4928 24.7298 20.5522 24.8147C20.8488 24.336 21.1336 23.8694 21.4303 23.4088C21.4837 23.324 21.5905 23.2755 21.6676 23.2149C21.6854 23.2392 21.7092 23.2573 21.727 23.2816C21.5074 23.6391 21.3057 24.0148 21.0565 24.3541C20.7361 24.7904 20.5759 25.257 20.6471 25.7963C20.659 25.8691 20.6471 25.9478 20.6471 26.0266C20.6471 26.0387 20.6412 26.0569 20.6293 26.0872C20.5106 26.1236 20.4157 26.1236 20.4335 25.9478C20.4335 25.9297 20.4335 25.9175 20.4335 25.8994C20.5344 25.257 20.3208 24.7117 19.941 24.2087C19.7274 23.9179 19.5553 23.5967 19.3655 23.2876C19.3833 23.2634 19.4011 23.2452 19.4189 23.221H19.4248Z" fill="#141414"/>
<path d="M37.3912 26.0812C37.2013 26.1478 37.2013 26.0448 37.2013 25.9236C37.2013 25.5115 37.2013 25.0995 37.1716 24.6874C37.142 24.2027 36.8038 24.0269 36.3825 24.2572C36.0858 24.4208 35.9019 24.6632 35.9197 25.0328C35.9316 25.3358 35.9197 25.6449 35.9197 25.9539C35.9197 26.0872 35.8782 26.1357 35.7298 26.0872C35.7298 25.4328 35.7298 24.7723 35.7298 24.1178C35.7298 24.0815 35.7832 24.0512 35.8129 24.0148C35.8426 24.0451 35.896 24.0754 35.9019 24.1118C35.9138 24.2087 35.9019 24.3117 35.9019 24.4572C36.1274 24.1905 36.3647 24.0148 36.6851 23.9784C37.0233 23.9421 37.2784 24.0815 37.3318 24.4208C37.3852 24.7359 37.3734 25.0571 37.3852 25.3782C37.3912 25.6085 37.3852 25.8388 37.3852 26.0751L37.3912 26.0812Z" fill="#141414"/>
<path d="M34.555 23.3179C34.8457 23.2634 34.7567 23.4634 34.7686 23.5724C34.7805 23.7058 34.7686 23.8451 34.7686 23.9603C34.911 24.0996 35.1602 23.8815 35.2611 24.1784H34.7686C34.7686 24.7117 34.7627 25.2207 34.7805 25.7297C34.7805 25.8024 34.9169 25.8994 35.0059 25.9236C35.1068 25.9478 35.2196 25.8933 35.3738 25.863C35.356 25.9297 35.3442 26.0387 35.3204 26.0387C35.1365 26.063 34.9347 26.1054 34.7567 26.069C34.5728 26.0266 34.555 25.8327 34.555 25.657C34.555 25.1783 34.555 24.6935 34.555 24.1966C34.4541 24.1845 34.3711 24.1784 34.2821 24.1663C34.2702 24.1421 34.2643 24.1239 34.2524 24.0996C34.3355 24.0572 34.4185 24.0148 34.5431 23.9542V23.3179H34.555Z" fill="#141414"/>
<path d="M40.4528 24.3905C40.6546 24.2633 40.8444 24.1299 41.0402 24.0269C41.0877 24.0027 41.1767 24.0572 41.2479 24.0754C41.1945 24.1239 41.153 24.2027 41.0936 24.2148C40.6783 24.3238 40.4706 24.5844 40.4706 25.0146C40.4706 25.3298 40.4706 25.6388 40.4706 25.9539C40.4706 26.0872 40.4291 26.1357 40.2808 26.0751C40.2808 25.4328 40.2808 24.7844 40.2808 24.136C40.2808 24.0936 40.3342 24.0512 40.3638 24.0148C40.3935 24.0572 40.441 24.0936 40.4469 24.1421C40.4588 24.239 40.4469 24.336 40.4469 24.3905H40.4528Z" fill="#141414"/>
<path d="M33.3387 24.4693C33.5582 24.1905 33.7599 23.9966 34.1337 24.0451C34.0863 24.0996 34.0507 24.1905 33.9973 24.2087C33.5048 24.3602 33.3446 24.5723 33.3446 25.0995C33.3446 25.4267 33.3446 25.7539 33.3446 26.0812C33.3209 26.0933 33.3031 26.1115 33.2793 26.1236C33.2378 26.0751 33.1607 26.0266 33.1607 25.9781C33.1547 25.3661 33.1547 24.7541 33.1607 24.1421C33.1607 24.0996 33.2141 24.0572 33.2437 24.0148C33.2793 24.0633 33.3268 24.1057 33.3387 24.1542C33.3565 24.233 33.3387 24.3178 33.3387 24.4693Z" fill="#141414"/>
<path d="M26.5449 24.4753C26.7644 24.1845 26.9721 23.9966 27.34 24.0633C27.2925 24.1178 27.245 24.1966 27.1857 24.2148C26.7288 24.3481 26.5449 24.5844 26.5449 25.0692C26.5449 25.3903 26.5449 25.7115 26.5449 26.0327C26.5449 26.0448 26.539 26.063 26.533 26.0872C26.4203 26.1357 26.361 26.1114 26.361 25.966C26.361 25.3601 26.361 24.7601 26.361 24.1542C26.361 24.1057 26.4203 24.0633 26.4559 24.0148C26.4856 24.0633 26.5271 24.1118 26.539 24.1663C26.5508 24.2451 26.539 24.3299 26.539 24.4693L26.5449 24.4753Z" fill="#141414"/>
<path d="M42.7431 26.0812C42.5889 26.1417 42.5355 26.0993 42.5355 25.9478C42.5355 25.354 42.5355 24.7601 42.5355 24.1602C42.5355 24.1118 42.5948 24.0633 42.6245 24.0148C42.66 24.0572 42.7313 24.0996 42.7313 24.1421C42.7372 24.7904 42.7313 25.4388 42.7313 26.0812H42.7431Z" fill="#141414"/>
<path d="M69.1349 24.7783C68.6603 24.7783 68.3102 24.4269 68.3043 23.9481C68.3043 23.4634 68.6603 23.0937 69.1409 23.0877C69.6215 23.0877 69.9775 23.4513 69.9775 23.9421C69.9775 24.439 69.6333 24.7783 69.1349 24.7783ZM69.1409 23.1725C68.7018 23.1725 68.3873 23.5119 68.3933 23.9663C68.3933 24.4026 68.7315 24.7298 69.1587 24.7238C69.5859 24.7177 69.9122 24.3844 69.9122 23.9542C69.9122 23.5179 69.574 23.1725 69.1409 23.1786V23.1725Z" fill="#141414"/>
<path d="M55.583 26.1296C55.5474 26.0751 55.4762 26.0206 55.4703 25.966C55.4644 25.3661 55.4644 24.7601 55.4703 24.1602C55.4703 24.1118 55.5296 24.0633 55.5593 24.0148C55.589 24.0633 55.6483 24.1057 55.6483 24.1542C55.6542 24.7965 55.6483 25.4328 55.6483 26.0751L55.5712 26.1296H55.583Z" fill="#141414"/>
<path d="M42.7312 23.5179C42.5236 23.5906 42.5354 23.4573 42.5295 23.3301C42.5236 23.1725 42.5948 23.1543 42.7312 23.1907V23.524V23.5179Z" fill="#141414"/>
<path d="M55.6542 23.1907V23.5179C55.5356 23.5603 55.4584 23.5482 55.4703 23.4028C55.4762 23.2998 55.4169 23.1301 55.6542 23.1907Z" fill="#141414"/>
<path d="M69.5265 24.4511C69.2892 24.3723 69.2892 23.9481 68.9095 24.1178C68.8976 24.233 68.8917 24.3541 68.8798 24.4814C68.862 24.4814 68.8442 24.4814 68.8264 24.4814V23.4391C69.1883 23.3543 69.4197 23.4028 69.5087 23.6088C69.5977 23.8209 69.5087 23.9724 69.3189 24.0875C69.3901 24.2148 69.4613 24.336 69.5265 24.4572V24.4511ZM69.1112 23.9845C69.2892 23.9966 69.4375 23.9724 69.4375 23.7482C69.4375 23.524 69.2833 23.5119 69.1171 23.4997C68.9332 23.4876 68.8857 23.5603 68.8976 23.73C68.9035 23.8936 68.8976 24.033 69.1112 23.9784V23.9845Z" fill="#141414"/>
</svg>
