<svg width="177" height="32" viewBox="0 0 177 32" fill="none" xmlns="http://www.w3.org/2000/svg">
<path d="M65.7282 13.7742V13.7422C65.7282 13.7422 65.7089 13.7678 65.7024 13.7742H65.7282Z" fill="#FCEFE0"/>
<path d="M64.3636 0.00253994C55.475 0.00253994 48.2727 7.16357 48.2727 16.0013C48.2727 24.839 55.475 32 64.3636 32C73.2523 32 80.4545 24.839 80.4545 16.0013C80.4545 7.16357 73.2523 0.00253994 64.3636 0.00253994ZM60.2186 22.8487H56.6722V12.2384H60.2186V22.8487ZM58.4422 10.7921H58.4164C57.2257 10.7921 56.4533 9.97935 56.4533 8.96183C56.4533 7.94431 57.245 7.13157 58.4615 7.13157C59.678 7.13157 60.4181 7.92511 60.4439 8.96183C60.4439 9.97935 59.678 10.7921 58.4357 10.7921H58.4422ZM73.0077 22.8487H69.4612V17.1724C69.4612 15.7453 68.9463 14.7726 67.6655 14.7726C66.6872 14.7726 66.1015 15.4253 65.844 16.0589C65.7475 16.2828 65.7281 16.6028 65.7281 16.9164V22.8423H62.1817C62.1817 22.8423 62.2268 13.2303 62.1817 12.232H65.7281V13.7358C66.198 13.0127 67.0412 11.9824 68.927 11.9824C71.2634 11.9824 73.0077 13.4991 73.0077 16.7564V22.8487Z" fill="#FCEFE0"/>
<path d="M121.615 2.72232C114.239 -2.20528 104.243 -0.259839 99.2874 7.07398C94.3314 14.4078 96.288 24.3462 103.664 29.2738C111.04 34.2014 121.036 32.256 125.992 24.9222C130.948 17.5883 128.991 7.64993 121.615 2.72232ZM122.259 19.6746C122.259 22.9319 119.607 25.5685 116.331 25.5685H108.942C105.666 25.5685 103.014 22.9319 103.014 19.6746V12.3344C103.014 9.07702 105.666 6.44043 108.942 6.44043H116.331C119.607 6.44043 122.259 9.07702 122.259 12.3344V19.6746Z" fill="#FCEFE0"/>
<path d="M115.623 8.27068H109.656C107.011 8.27068 104.868 10.4017 104.868 13.0319V18.9642C104.868 21.5944 107.011 23.7255 109.656 23.7255H115.623C118.268 23.7255 120.411 21.5944 120.411 18.9642V13.0319C120.411 10.4017 118.268 8.27068 115.623 8.27068ZM112.649 20.8457C109.985 20.8457 107.822 18.6955 107.822 16.0461C107.822 13.3967 109.985 11.2464 112.649 11.2464C115.314 11.2464 117.477 13.3903 117.477 16.0461C117.477 18.7019 115.314 20.8457 112.649 20.8457ZM117.612 12.2C116.904 12.2 116.324 11.624 116.324 10.9201C116.324 10.2161 116.904 9.64017 117.612 9.64017C118.32 9.64017 118.899 10.2161 118.899 10.9201C118.899 11.624 118.32 12.2 117.612 12.2Z" fill="#FCEFE0"/>
<path d="M112.649 13.1599C111.047 13.1599 109.746 14.4526 109.746 16.0461C109.746 17.6395 111.047 18.9322 112.649 18.9322C114.252 18.9322 115.552 17.6395 115.552 16.0461C115.552 14.4526 114.252 13.1599 112.649 13.1599Z" fill="#FCEFE0"/>
<path d="M16.0909 0.00253994C7.20229 0.00253994 0 7.16357 0 16.0013C0 24.839 7.20229 32 16.0909 32C24.9795 32 32.1818 24.839 32.1818 16.0013C32.1818 7.16357 24.9795 0.00253994 16.0909 0.00253994ZM19.2576 9.65937C17.848 9.65937 17.5713 10.3249 17.5713 11.304V13.4607H20.9375L20.4998 16.8396H17.5777V25.5045H14.0699V16.8396H11.1349V13.4607H14.0699V10.9713C14.0699 8.0787 15.8463 6.50442 18.4402 6.50442C19.6824 6.50442 20.7508 6.59402 21.0598 6.63881V9.65937H19.2576Z" fill="#FCEFE0"/>
<path d="M158.579 18.8554L164.52 15.7965L158.579 12.7119V18.8554Z" fill="#FCEFE0"/>
<path d="M160.909 0.00253994C152.02 0.00253994 144.818 7.16357 144.818 16.0013C144.818 24.839 152.02 32 160.909 32C169.798 32 177 24.839 177 16.0013C177 7.16357 169.798 0.00253994 160.909 0.00253994ZM170.963 16.7564C170.963 18.3755 170.763 19.9946 170.763 19.9946C170.763 19.9946 170.564 21.3704 169.965 21.9784C169.199 22.7783 168.343 22.7783 167.95 22.8231C165.138 23.0279 160.909 23.0343 160.909 23.0343C160.909 23.0343 155.676 22.9895 154.067 22.8359C153.623 22.7527 152.613 22.7783 151.847 21.9784C151.242 21.3704 151.049 19.9946 151.049 19.9946C151.049 19.9946 150.849 18.3755 150.849 16.7564V15.2397C150.849 13.6207 151.049 12.0016 151.049 12.0016C151.049 12.0016 151.248 10.6257 151.847 10.0177C152.613 9.21781 153.469 9.21781 153.861 9.17301C156.674 8.96823 160.896 8.96823 160.896 8.96823H160.903C160.903 8.96823 165.125 8.96823 167.938 9.17301C168.33 9.21781 169.186 9.22421 169.952 10.0177C170.557 10.6257 170.75 12.0016 170.75 12.0016C170.75 12.0016 170.95 13.6207 170.95 15.2397V16.7564H170.963Z" fill="#FCEFE0"/>
</svg>
