<svg width="30" height="30" viewBox="0 0 30 30" fill="none" xmlns="http://www.w3.org/2000/svg">
<path d="M12.1436 24.2861C5.45249 24.2861 0 18.8339 0 12.1431C0 5.45223 5.45249 0 12.1436 0C18.8348 0 24.2873 5.45223 24.2873 12.1431C24.2873 18.8339 18.8348 24.2861 12.1436 24.2861ZM12.1436 2.42861C6.78829 2.42861 2.42873 6.78797 2.42873 12.1431C2.42873 17.4981 6.78829 21.8575 12.1436 21.8575C17.499 21.8575 21.8585 17.4981 21.8585 12.1431C21.8585 6.78797 17.499 2.42861 12.1436 2.42861Z" fill="#A6907C"/>
<path d="M20.7262 19.0094L19.0088 20.7267L28.2826 30L30 28.2827L20.7262 19.0094Z" fill="#A6907C"/>
</svg>
